<?xml version="1.0" encoding="utf-8" standalone="no"?>
<!DOCTYPE svg PUBLIC "-//W3C//DTD SVG 1.1//EN"
  "http://www.w3.org/Graphics/SVG/1.1/DTD/svg11.dtd">
<svg xmlns:xlink="http://www.w3.org/1999/xlink" width="1143.540237pt" height="424.210906pt" viewBox="0 0 1143.540237 424.210906" xmlns="http://www.w3.org/2000/svg" version="1.1">
 <metadata>
  <rdf:RDF xmlns:dc="http://purl.org/dc/elements/1.1/" xmlns:cc="http://creativecommons.org/ns#" xmlns:rdf="http://www.w3.org/1999/02/22-rdf-syntax-ns#">
   <cc:Work>
    <dc:type rdf:resource="http://purl.org/dc/dcmitype/StillImage"/>
    <dc:date>2025-10-02T19:17:08.529398</dc:date>
    <dc:format>image/svg+xml</dc:format>
    <dc:creator>
     <cc:Agent>
      <dc:title>Matplotlib v3.10.6, https://matplotlib.org/</dc:title>
     </cc:Agent>
    </dc:creator>
   </cc:Work>
  </rdf:RDF>
 </metadata>
 <defs>
  <style type="text/css">*{stroke-linejoin: round; stroke-linecap: butt}</style>
 </defs>
 <g id="figure_1">
  <g id="patch_1">
   <path d="M 0 424.210906 
L 1143.540237 424.210906 
L 1143.540237 0 
L 0 0 
z
" style="fill: #ffffff"/>
  </g>
  <g id="axes_1">
   <g id="patch_2">
    <path d="M 44.185938 385.546062 
L 557.056444 385.546062 
L 557.056444 39.920312 
L 44.185938 39.920312 
z
" style="fill: #ffffff"/>
   </g>
   <g id="matplotlib.axis_1">
    <g id="xtick_1">
     <g id="line2d_1">
      <path d="M 62.788679 385.546062 
L 62.788679 39.920312 
" clip-path="url(#p7331e7ce29)" style="fill: none; stroke: #b0b0b0; stroke-opacity: 0.3; stroke-width: 0.8; stroke-linecap: square"/>
     </g>
     <g id="line2d_2">
      <defs>
       <path id="m412b235e9a" d="M 0 0 
L 0 3.5 
" style="stroke: #000000; stroke-width: 0.8"/>
      </defs>
      <g>
       <use xlink:href="#m412b235e9a" x="62.788679" y="385.546062" style="stroke: #000000; stroke-width: 0.8"/>
      </g>
     </g>
     <g id="text_1">
      <!-- 0 -->
      <g transform="translate(60.288679 399.421062) scale(0.1 -0.1)">
       <defs>
        <path id="SimHei-30" d="M 225 2537 
Q 250 3200 412 3587 
Q 575 3975 875 4225 
Q 1175 4475 1612 4475 
Q 2050 4475 2375 4112 
Q 2700 3750 2800 3200 
Q 2900 2650 2862 1937 
Q 2825 1225 2612 775 
Q 2400 325 1975 150 
Q 1550 -25 1125 187 
Q 700 400 525 750 
Q 350 1100 275 1487 
Q 200 1875 225 2537 
z
M 750 2687 
Q 675 2000 800 1462 
Q 925 925 1212 700 
Q 1500 475 1800 612 
Q 2100 750 2237 1162 
Q 2375 1575 2375 2062 
Q 2375 2550 2337 2950 
Q 2300 3350 2112 3675 
Q 1925 4000 1612 4012 
Q 1300 4025 1062 3700 
Q 825 3375 750 2687 
z
" transform="scale(0.015625)"/>
       </defs>
       <use xlink:href="#SimHei-30"/>
      </g>
     </g>
    </g>
    <g id="xtick_2">
     <g id="line2d_3">
      <path d="M 156.979772 385.546062 
L 156.979772 39.920312 
" clip-path="url(#p7331e7ce29)" style="fill: none; stroke: #b0b0b0; stroke-opacity: 0.3; stroke-width: 0.8; stroke-linecap: square"/>
     </g>
     <g id="line2d_4">
      <g>
       <use xlink:href="#m412b235e9a" x="156.979772" y="385.546062" style="stroke: #000000; stroke-width: 0.8"/>
      </g>
     </g>
     <g id="text_2">
      <!-- 20 -->
      <g transform="translate(151.979772 399.421062) scale(0.1 -0.1)">
       <defs>
        <path id="SimHei-32" d="M 300 250 
Q 325 625 650 925 
Q 975 1225 1475 1862 
Q 1975 2500 2125 2850 
Q 2275 3200 2237 3450 
Q 2200 3700 2000 3862 
Q 1800 4025 1537 4000 
Q 1275 3975 1037 3800 
Q 800 3625 675 3275 
L 200 3350 
Q 400 3925 712 4187 
Q 1025 4450 1450 4475 
Q 1700 4500 1900 4462 
Q 2100 4425 2312 4287 
Q 2525 4150 2662 3875 
Q 2800 3600 2762 3212 
Q 2725 2825 2375 2287 
Q 2025 1750 1025 600 
L 2825 600 
L 2825 150 
L 300 150 
L 300 250 
z
" transform="scale(0.015625)"/>
       </defs>
       <use xlink:href="#SimHei-32"/>
       <use xlink:href="#SimHei-30" transform="translate(50 0)"/>
      </g>
     </g>
    </g>
    <g id="xtick_3">
     <g id="line2d_5">
      <path d="M 251.170866 385.546062 
L 251.170866 39.920312 
" clip-path="url(#p7331e7ce29)" style="fill: none; stroke: #b0b0b0; stroke-opacity: 0.3; stroke-width: 0.8; stroke-linecap: square"/>
     </g>
     <g id="line2d_6">
      <g>
       <use xlink:href="#m412b235e9a" x="251.170866" y="385.546062" style="stroke: #000000; stroke-width: 0.8"/>
      </g>
     </g>
     <g id="text_3">
      <!-- 40 -->
      <g transform="translate(246.170866 399.421062) scale(0.1 -0.1)">
       <defs>
        <path id="SimHei-34" d="M 2000 1100 
L 75 1100 
L 75 1525 
L 2100 4450 
L 2475 4450 
L 2475 1525 
L 3075 1525 
L 3075 1100 
L 2475 1100 
L 2475 150 
L 2000 150 
L 2000 1100 
z
M 2000 1525 
L 2000 3500 
L 600 1525 
L 2000 1525 
z
" transform="scale(0.015625)"/>
       </defs>
       <use xlink:href="#SimHei-34"/>
       <use xlink:href="#SimHei-30" transform="translate(50 0)"/>
      </g>
     </g>
    </g>
    <g id="xtick_4">
     <g id="line2d_7">
      <path d="M 345.36196 385.546062 
L 345.36196 39.920312 
" clip-path="url(#p7331e7ce29)" style="fill: none; stroke: #b0b0b0; stroke-opacity: 0.3; stroke-width: 0.8; stroke-linecap: square"/>
     </g>
     <g id="line2d_8">
      <g>
       <use xlink:href="#m412b235e9a" x="345.36196" y="385.546062" style="stroke: #000000; stroke-width: 0.8"/>
      </g>
     </g>
     <g id="text_4">
      <!-- 60 -->
      <g transform="translate(340.36196 399.421062) scale(0.1 -0.1)">
       <defs>
        <path id="SimHei-36" d="M 250 1612 
Q 275 1975 387 2225 
Q 500 2475 725 2850 
L 1750 4450 
L 2325 4450 
L 1275 2800 
Q 1950 2975 2350 2750 
Q 2750 2525 2887 2237 
Q 3025 1950 3037 1612 
Q 3050 1275 2937 950 
Q 2825 625 2537 362 
Q 2250 100 1737 75 
Q 1225 50 862 262 
Q 500 475 362 862 
Q 225 1250 250 1612 
z
M 1025 787 
Q 1250 550 1625 525 
Q 2000 500 2250 775 
Q 2500 1050 2500 1575 
Q 2500 2100 2187 2300 
Q 1875 2500 1487 2450 
Q 1100 2400 925 2075 
Q 750 1750 775 1387 
Q 800 1025 1025 787 
z
" transform="scale(0.015625)"/>
       </defs>
       <use xlink:href="#SimHei-36"/>
       <use xlink:href="#SimHei-30" transform="translate(50 0)"/>
      </g>
     </g>
    </g>
    <g id="xtick_5">
     <g id="line2d_9">
      <path d="M 439.553054 385.546062 
L 439.553054 39.920312 
" clip-path="url(#p7331e7ce29)" style="fill: none; stroke: #b0b0b0; stroke-opacity: 0.3; stroke-width: 0.8; stroke-linecap: square"/>
     </g>
     <g id="line2d_10">
      <g>
       <use xlink:href="#m412b235e9a" x="439.553054" y="385.546062" style="stroke: #000000; stroke-width: 0.8"/>
      </g>
     </g>
     <g id="text_5">
      <!-- 80 -->
      <g transform="translate(434.553054 399.421062) scale(0.1 -0.1)">
       <defs>
        <path id="SimHei-38" d="M 175 1375 
Q 175 1675 325 1962 
Q 475 2250 825 2425 
Q 525 2600 425 2812 
Q 325 3025 312 3300 
Q 300 3575 387 3775 
Q 475 3975 650 4150 
Q 825 4325 1037 4387 
Q 1250 4450 1500 4450 
Q 1750 4450 1950 4400 
Q 2150 4350 2375 4187 
Q 2600 4025 2700 3725 
Q 2800 3425 2687 3025 
Q 2575 2625 2100 2400 
Q 2525 2275 2700 2012 
Q 2875 1750 2875 1375 
Q 2875 1000 2762 775 
Q 2650 550 2512 400 
Q 2375 250 2137 162 
Q 1900 75 1537 75 
Q 1175 75 912 162 
Q 650 250 475 425 
Q 300 600 237 837 
Q 175 1075 175 1375 
z
M 687 1400 
Q 675 1100 787 875 
Q 900 650 1200 587 
Q 1500 525 1825 600 
Q 2150 675 2275 950 
Q 2400 1225 2362 1500 
Q 2325 1775 2050 1962 
Q 1775 2150 1450 2125 
Q 1125 2100 912 1900 
Q 700 1700 687 1400 
z
M 775 3350 
Q 775 3100 950 2875 
Q 1125 2650 1500 2650 
Q 1875 2650 2062 2875 
Q 2250 3100 2237 3412 
Q 2225 3725 2012 3875 
Q 1800 4025 1437 4000 
Q 1075 3975 925 3787 
Q 775 3600 775 3350 
z
" transform="scale(0.015625)"/>
       </defs>
       <use xlink:href="#SimHei-38"/>
       <use xlink:href="#SimHei-30" transform="translate(50 0)"/>
      </g>
     </g>
    </g>
    <g id="xtick_6">
     <g id="line2d_11">
      <path d="M 533.744148 385.546062 
L 533.744148 39.920312 
" clip-path="url(#p7331e7ce29)" style="fill: none; stroke: #b0b0b0; stroke-opacity: 0.3; stroke-width: 0.8; stroke-linecap: square"/>
     </g>
     <g id="line2d_12">
      <g>
       <use xlink:href="#m412b235e9a" x="533.744148" y="385.546062" style="stroke: #000000; stroke-width: 0.8"/>
      </g>
     </g>
     <g id="text_6">
      <!-- 100 -->
      <g transform="translate(526.244148 399.421062) scale(0.1 -0.1)">
       <defs>
        <path id="SimHei-31" d="M 1400 3600 
Q 1075 3275 575 2975 
L 575 3450 
Q 1200 3875 1600 4450 
L 1900 4450 
L 1900 150 
L 1400 150 
L 1400 3600 
z
" transform="scale(0.015625)"/>
       </defs>
       <use xlink:href="#SimHei-31"/>
       <use xlink:href="#SimHei-30" transform="translate(50 0)"/>
       <use xlink:href="#SimHei-30" transform="translate(100 0)"/>
      </g>
     </g>
    </g>
    <g id="text_7">
     <!-- 训练轮数 (Epochs) -->
     <g transform="translate(245.371191 415.385906) scale(0.13 -0.13)">
      <defs>
       <path id="SimHei-8bad" d="M 1650 3300 
Q 1625 2725 1625 2225 
L 1625 675 
Q 1950 1125 2050 1275 
Q 2175 1125 2350 900 
Q 2025 500 1800 212 
Q 1575 -75 1325 -425 
Q 1150 -200 950 -50 
Q 1150 225 1150 625 
L 1150 2875 
L 975 2875 
Q 600 2875 300 2850 
L 300 3325 
Q 600 3300 975 3300 
L 1650 3300 
z
M 3425 4600 
Q 3375 4350 3387 3362 
Q 3400 2375 3337 1887 
Q 3275 1400 3087 837 
Q 2900 275 2450 -375 
Q 2225 -200 1975 -125 
Q 2550 500 2762 1362 
Q 2975 2225 2950 3337 
Q 2925 4450 2900 4675 
Q 3150 4625 3425 4600 
z
M 5875 4700 
Q 5850 4500 5850 3975 
L 5850 625 
Q 5850 125 5875 -400 
L 5400 -400 
Q 5425 125 5425 600 
L 5425 3975 
Q 5425 4500 5400 4700 
L 5875 4700 
z
M 4600 175 
L 4125 175 
Q 4150 725 4150 1150 
L 4150 3600 
Q 4150 4050 4125 4350 
L 4600 4350 
L 4600 175 
z
M 1000 5150 
Q 1650 4600 2100 4100 
Q 1875 3925 1750 3750 
Q 1050 4550 700 4800 
Q 850 4950 1000 5150 
z
" transform="scale(0.015625)"/>
       <path id="SimHei-7ec3" d="M 3300 3825 
Q 2950 3825 2400 3800 
L 2400 4250 
Q 2950 4225 3325 4225 
L 3625 4225 
Q 3875 4950 3900 5175 
Q 4200 5025 4450 4925 
Q 4350 4825 4262 4612 
Q 4175 4400 4100 4225 
L 5025 4225 
Q 5425 4225 5900 4250 
L 5900 3800 
Q 5550 3825 5025 3825 
L 3975 3825 
Q 3850 3525 3700 3150 
L 4675 3150 
Q 4650 2875 4650 2475 
L 4650 1975 
L 4975 1975 
Q 5350 1975 5800 2000 
L 5800 1550 
Q 5350 1575 4975 1575 
L 4650 1575 
L 4650 125 
Q 4650 -300 4462 -425 
Q 4275 -550 3650 -625 
Q 3625 -375 3450 -100 
Q 4075 -125 4137 -25 
Q 4200 75 4200 325 
L 4200 1575 
L 3425 1575 
Q 3250 1575 3100 1562 
Q 2950 1550 2750 1475 
Q 2650 1725 2550 1950 
Q 2800 2025 3125 2775 
Q 2950 2775 2450 2750 
L 2450 3175 
Q 3025 3150 3250 3150 
Q 3400 3525 3500 3825 
L 3300 3825 
z
M 1650 2950 
Q 1875 3300 2100 3900 
Q 2325 3725 2575 3600 
Q 2325 3275 2025 2750 
Q 1725 2225 1075 1350 
Q 1300 1400 2400 1575 
Q 2350 1300 2375 1150 
Q 1825 1100 650 825 
Q 525 1075 400 1275 
Q 625 1400 887 1737 
Q 1150 2075 1450 2575 
Q 1300 2600 1012 2562 
Q 725 2525 450 2450 
Q 350 2675 250 2925 
Q 500 3075 812 3725 
Q 1125 4375 1325 5000 
Q 1600 4825 1850 4750 
Q 1600 4375 1387 3962 
Q 1175 3550 800 2925 
Q 1375 2925 1650 2950 
z
M 2425 700 
Q 2400 425 2425 250 
Q 2000 150 1462 -25 
Q 925 -200 475 -425 
Q 400 -150 300 125 
Q 950 275 1187 337 
Q 1425 400 2425 700 
z
M 3725 875 
Q 3650 800 3287 400 
Q 2925 0 2475 -475 
Q 2300 -250 2150 -125 
Q 2425 100 2750 462 
Q 3075 825 3325 1225 
Q 3475 1050 3725 875 
z
M 5275 1225 
Q 5925 375 6200 -100 
Q 5950 -200 5750 -375 
Q 5475 175 4900 950 
Q 5075 1050 5275 1225 
z
M 4200 1975 
L 4200 2775 
L 3575 2775 
Q 3325 2250 3175 1975 
L 4200 1975 
z
" transform="scale(0.015625)"/>
       <path id="SimHei-8f6e" d="M 2200 3350 
Q 2175 3050 2175 2750 
L 2175 2425 
Q 2575 2425 2850 2450 
L 2850 2025 
Q 2550 2050 2175 2050 
L 2175 1150 
L 2975 1250 
Q 2925 1075 2925 850 
Q 2625 825 2175 750 
Q 2175 150 2200 -650 
L 1700 -650 
Q 1725 125 1725 700 
Q 700 550 400 475 
Q 300 775 250 975 
Q 600 1000 1725 1100 
L 1725 2050 
Q 1425 2050 1100 2025 
Q 775 2000 475 1925 
L 300 2425 
Q 450 2550 650 2900 
Q 850 3250 1075 3850 
Q 750 3850 275 3825 
L 275 4275 
Q 750 4250 1200 4250 
Q 1375 4875 1425 5200 
Q 1675 5075 1950 5025 
Q 1825 4750 1650 4250 
L 2075 4250 
Q 2600 4250 2975 4275 
L 2975 3825 
Q 2550 3850 2100 3850 
L 1550 3850 
Q 1175 2900 900 2425 
L 1725 2425 
Q 1700 3050 1700 3350 
L 2200 3350 
z
M 3750 1625 
Q 4750 2075 5200 2550 
Q 5475 2225 5625 2125 
Q 5175 1875 4750 1650 
Q 4325 1425 3750 1175 
L 3750 225 
Q 3750 -75 4050 -100 
L 4925 -100 
Q 5250 -125 5325 137 
Q 5400 400 5400 600 
Q 5800 350 5975 300 
Q 5750 -225 5612 -362 
Q 5475 -500 5175 -500 
L 3850 -500 
Q 3300 -500 3300 0 
L 3300 1900 
Q 3300 2475 3275 2900 
L 3775 2900 
Q 3750 2450 3750 2100 
L 3750 1625 
z
M 4375 4800 
Q 4875 3975 5337 3650 
Q 5800 3325 6200 3125 
Q 5975 2875 5825 2650 
Q 5200 3075 4825 3487 
Q 4450 3900 4200 4350 
Q 3875 3825 3587 3412 
Q 3300 3000 2925 2625 
Q 2725 2800 2450 3000 
Q 2775 3200 3037 3487 
Q 3300 3775 3512 4150 
Q 3725 4525 3950 5275 
Q 4300 5100 4550 5000 
L 4375 4800 
z
" transform="scale(0.015625)"/>
       <path id="SimHei-6570" d="M 4525 4925 
Q 4475 4800 4400 4587 
Q 4325 4375 4175 3825 
L 5325 3825 
Q 5575 3825 5925 3850 
L 5925 3400 
Q 5650 3425 5500 3425 
Q 5500 3025 5362 2162 
Q 5225 1300 4875 675 
Q 5125 375 5437 137 
Q 5750 -100 6025 -200 
Q 5725 -425 5625 -625 
Q 5325 -450 5075 -225 
Q 4825 0 4575 325 
Q 4300 25 3987 -187 
Q 3675 -400 3200 -650 
Q 3075 -425 2850 -300 
Q 3225 -150 3650 125 
Q 4075 400 4300 675 
Q 4125 1025 3962 1425 
Q 3800 1825 3675 2475 
Q 3600 2275 3425 1950 
Q 3250 2050 3000 2150 
Q 3400 2850 3650 3675 
Q 3900 4500 3975 5100 
Q 4275 4975 4525 4925 
z
M 2100 2250 
Q 2000 2150 1875 1925 
L 3250 1925 
Q 3100 1300 2725 675 
Q 3125 525 3350 400 
Q 3225 225 3125 25 
Q 2900 175 2450 325 
Q 1950 -225 725 -650 
Q 600 -375 400 -275 
Q 1575 0 2000 475 
Q 1300 650 850 775 
Q 1000 1000 1250 1525 
Q 1000 1525 425 1500 
L 425 1950 
Q 900 1925 1400 1925 
Q 1500 2150 1550 2425 
Q 1825 2325 2100 2250 
z
M 1775 3950 
Q 1775 4550 1750 5100 
L 2250 5100 
Q 2225 4575 2225 3950 
Q 3075 3950 3425 3975 
L 3425 3525 
Q 3075 3550 2225 3550 
Q 2225 2825 2250 2425 
L 1750 2425 
Q 1775 2775 1775 3300 
Q 1650 3100 1300 2787 
Q 950 2475 650 2300 
Q 525 2525 275 2625 
Q 500 2700 875 2975 
Q 1250 3250 1450 3550 
Q 950 3550 500 3525 
L 500 3975 
Q 925 3950 1775 3950 
z
M 3975 3175 
Q 4200 1700 4600 1125 
Q 4850 1700 4937 2287 
Q 5025 2875 5050 3425 
L 4075 3425 
L 3975 3175 
z
M 1450 1000 
Q 1750 925 2275 800 
Q 2475 1050 2650 1525 
L 1725 1525 
Q 1600 1275 1450 1000 
z
M 3325 4825 
Q 3200 4625 3125 4450 
Q 3050 4275 2925 4025 
Q 2725 4125 2525 4175 
Q 2725 4500 2900 5000 
Q 3150 4875 3325 4825 
z
M 2575 3375 
Q 2900 3050 3200 2725 
Q 3050 2600 2875 2425 
Q 2525 2850 2300 3100 
Q 2450 3225 2575 3375 
z
M 925 5000 
Q 1275 4650 1500 4300 
L 1125 4075 
Q 950 4425 600 4725 
Q 825 4875 925 5000 
z
" transform="scale(0.015625)"/>
       <path id="SimHei-20" transform="scale(0.015625)"/>
       <path id="SimHei-28" d="M 2975 -200 
L 2700 -475 
Q 2075 125 1762 775 
Q 1450 1425 1450 2250 
Q 1450 3075 1762 3725 
Q 2075 4375 2700 5000 
L 2975 4725 
Q 2400 4175 2112 3587 
Q 1825 3000 1825 2250 
Q 1825 1500 2112 912 
Q 2400 325 2975 -200 
z
" transform="scale(0.015625)"/>
       <path id="SimHei-45" d="M 2900 125 
L 350 125 
L 350 4400 
L 2775 4400 
L 2775 3925 
L 925 3925 
L 925 2600 
L 2625 2600 
L 2625 2125 
L 925 2125 
L 925 600 
L 2900 600 
L 2900 125 
z
" transform="scale(0.015625)"/>
       <path id="SimHei-70" d="M 2825 1525 
Q 2825 800 2475 425 
Q 2125 50 1625 50 
Q 1350 50 1150 162 
Q 950 275 800 500 
L 800 -800 
L 300 -800 
L 300 2925 
L 800 2925 
L 800 2550 
Q 950 2775 1150 2875 
Q 1350 2975 1625 2975 
Q 2125 2975 2475 2612 
Q 2825 2250 2825 1525 
z
M 2275 1525 
Q 2275 2000 2087 2262 
Q 1900 2525 1525 2525 
Q 1225 2525 1012 2262 
Q 800 2000 800 1525 
Q 800 1050 1012 775 
Q 1225 500 1525 500 
Q 1900 500 2087 775 
Q 2275 1050 2275 1525 
z
" transform="scale(0.015625)"/>
       <path id="SimHei-6f" d="M 2925 1525 
Q 2925 875 2525 475 
Q 2125 75 1575 75 
Q 1025 75 625 475 
Q 225 875 225 1525 
Q 225 2175 625 2575 
Q 1025 2975 1575 2975 
Q 2125 2975 2525 2575 
Q 2925 2175 2925 1525 
z
M 2375 1525 
Q 2375 2025 2125 2275 
Q 1875 2525 1575 2525 
Q 1275 2525 1025 2275 
Q 775 2025 775 1525 
Q 775 1025 1025 775 
Q 1275 525 1575 525 
Q 1875 525 2125 775 
Q 2375 1025 2375 1525 
z
" transform="scale(0.015625)"/>
       <path id="SimHei-63" d="M 2850 1250 
Q 2850 725 2487 400 
Q 2125 75 1575 75 
Q 1025 75 625 462 
Q 225 850 225 1525 
Q 225 2200 625 2587 
Q 1025 2975 1575 2975 
Q 2125 2975 2450 2687 
Q 2775 2400 2775 2000 
L 2225 2000 
Q 2200 2300 2012 2412 
Q 1825 2525 1575 2525 
Q 1275 2525 1025 2287 
Q 775 2050 775 1525 
Q 775 1000 1025 762 
Q 1275 525 1575 525 
Q 1900 525 2100 700 
Q 2300 875 2300 1250 
L 2850 1250 
z
" transform="scale(0.015625)"/>
       <path id="SimHei-68" d="M 2800 125 
L 2300 125 
L 2300 1925 
Q 2300 2225 2150 2400 
Q 2000 2575 1750 2575 
Q 1425 2575 1137 2237 
Q 850 1900 850 1400 
L 850 125 
L 350 125 
L 350 4400 
L 850 4400 
L 850 2400 
Q 1050 2675 1287 2825 
Q 1525 2975 1900 2975 
Q 2350 2975 2575 2725 
Q 2800 2475 2800 2100 
L 2800 125 
z
" transform="scale(0.015625)"/>
       <path id="SimHei-73" d="M 2750 900 
Q 2750 500 2437 287 
Q 2125 75 1650 75 
Q 1050 75 725 312 
Q 400 550 400 1000 
L 900 1000 
Q 900 700 1112 600 
Q 1325 500 1625 500 
Q 1925 500 2075 612 
Q 2225 725 2225 900 
Q 2225 1025 2100 1150 
Q 1975 1275 1475 1350 
Q 900 1425 687 1637 
Q 475 1850 475 2200 
Q 475 2500 762 2737 
Q 1050 2975 1600 2975 
Q 2100 2975 2387 2750 
Q 2675 2525 2675 2150 
L 2175 2150 
Q 2175 2375 2012 2462 
Q 1850 2550 1600 2550 
Q 1275 2550 1137 2437 
Q 1000 2325 1000 2175 
Q 1000 2000 1125 1900 
Q 1250 1800 1650 1750 
Q 2300 1650 2525 1437 
Q 2750 1225 2750 900 
z
" transform="scale(0.015625)"/>
       <path id="SimHei-29" d="M 1675 2250 
Q 1675 1425 1362 775 
Q 1050 125 425 -475 
L 150 -200 
Q 725 325 1012 912 
Q 1300 1500 1300 2250 
Q 1300 3000 1012 3587 
Q 725 4175 150 4725 
L 425 5000 
Q 1050 4375 1362 3725 
Q 1675 3075 1675 2250 
z
" transform="scale(0.015625)"/>
      </defs>
      <use xlink:href="#SimHei-8bad"/>
      <use xlink:href="#SimHei-7ec3" transform="translate(100 0)"/>
      <use xlink:href="#SimHei-8f6e" transform="translate(200 0)"/>
      <use xlink:href="#SimHei-6570" transform="translate(300 0)"/>
      <use xlink:href="#SimHei-20" transform="translate(400 0)"/>
      <use xlink:href="#SimHei-28" transform="translate(450 0)"/>
      <use xlink:href="#SimHei-45" transform="translate(500 0)"/>
      <use xlink:href="#SimHei-70" transform="translate(550 0)"/>
      <use xlink:href="#SimHei-6f" transform="translate(600 0)"/>
      <use xlink:href="#SimHei-63" transform="translate(650 0)"/>
      <use xlink:href="#SimHei-68" transform="translate(700 0)"/>
      <use xlink:href="#SimHei-73" transform="translate(750 0)"/>
      <use xlink:href="#SimHei-29" transform="translate(800 0)"/>
     </g>
    </g>
   </g>
   <g id="matplotlib.axis_2">
    <g id="ytick_1">
     <g id="line2d_13">
      <path d="M 44.185938 273.548601 
L 557.056444 273.548601 
" clip-path="url(#p7331e7ce29)" style="fill: none; stroke: #b0b0b0; stroke-opacity: 0.3; stroke-width: 0.8; stroke-linecap: square"/>
     </g>
     <g id="line2d_14">
      <defs>
       <path id="m51a2f188de" d="M 0 0 
L -3.5 0 
" style="stroke: #000000; stroke-width: 0.8"/>
      </defs>
      <g>
       <use xlink:href="#m51a2f188de" x="44.185938" y="273.548601" style="stroke: #000000; stroke-width: 0.8"/>
      </g>
     </g>
     <g id="text_8">
      <!-- $\mathdefault{10^{0}}$ -->
      <g transform="translate(23.285938 277.023601) scale(0.1 -0.1)">
       <use xlink:href="#SimHei-31" transform="translate(0 0.0625)"/>
       <use xlink:href="#SimHei-30" transform="translate(50 0.0625)"/>
       <use xlink:href="#SimHei-30" transform="translate(100.799805 32.054688) scale(0.7)"/>
      </g>
     </g>
    </g>
    <g id="ytick_2">
     <g id="line2d_15">
      <path d="M 44.185938 68.767374 
L 557.056444 68.767374 
" clip-path="url(#p7331e7ce29)" style="fill: none; stroke: #b0b0b0; stroke-opacity: 0.3; stroke-width: 0.8; stroke-linecap: square"/>
     </g>
     <g id="line2d_16">
      <g>
       <use xlink:href="#m51a2f188de" x="44.185938" y="68.767374" style="stroke: #000000; stroke-width: 0.8"/>
      </g>
     </g>
     <g id="text_9">
      <!-- $\mathdefault{10^{1}}$ -->
      <g transform="translate(23.285938 72.242374) scale(0.1 -0.1)">
       <use xlink:href="#SimHei-31" transform="translate(0 0.335938)"/>
       <use xlink:href="#SimHei-30" transform="translate(50 0.335938)"/>
       <use xlink:href="#SimHei-31" transform="translate(100.799805 32.328125) scale(0.7)"/>
      </g>
     </g>
    </g>
    <g id="ytick_3">
     <g id="line2d_17">
      <defs>
       <path id="mff60d56074" d="M 0 0 
L -2 0 
" style="stroke: #000000; stroke-width: 0.6"/>
      </defs>
      <g>
       <use xlink:href="#mff60d56074" x="44.185938" y="380.624351" style="stroke: #000000; stroke-width: 0.6"/>
      </g>
     </g>
    </g>
    <g id="ytick_4">
     <g id="line2d_18">
      <g>
       <use xlink:href="#mff60d56074" x="44.185938" y="355.039244" style="stroke: #000000; stroke-width: 0.6"/>
      </g>
     </g>
    </g>
    <g id="ytick_5">
     <g id="line2d_19">
      <g>
       <use xlink:href="#mff60d56074" x="44.185938" y="335.193892" style="stroke: #000000; stroke-width: 0.6"/>
      </g>
     </g>
    </g>
    <g id="ytick_6">
     <g id="line2d_20">
      <g>
       <use xlink:href="#mff60d56074" x="44.185938" y="318.97906" style="stroke: #000000; stroke-width: 0.6"/>
      </g>
     </g>
    </g>
    <g id="ytick_7">
     <g id="line2d_21">
      <g>
       <use xlink:href="#mff60d56074" x="44.185938" y="305.269614" style="stroke: #000000; stroke-width: 0.6"/>
      </g>
     </g>
    </g>
    <g id="ytick_8">
     <g id="line2d_22">
      <g>
       <use xlink:href="#mff60d56074" x="44.185938" y="293.393952" style="stroke: #000000; stroke-width: 0.6"/>
      </g>
     </g>
    </g>
    <g id="ytick_9">
     <g id="line2d_23">
      <g>
       <use xlink:href="#mff60d56074" x="44.185938" y="282.918876" style="stroke: #000000; stroke-width: 0.6"/>
      </g>
     </g>
    </g>
    <g id="ytick_10">
     <g id="line2d_24">
      <g>
       <use xlink:href="#mff60d56074" x="44.185938" y="211.903309" style="stroke: #000000; stroke-width: 0.6"/>
      </g>
     </g>
    </g>
    <g id="ytick_11">
     <g id="line2d_25">
      <g>
       <use xlink:href="#mff60d56074" x="44.185938" y="175.843125" style="stroke: #000000; stroke-width: 0.6"/>
      </g>
     </g>
    </g>
    <g id="ytick_12">
     <g id="line2d_26">
      <g>
       <use xlink:href="#mff60d56074" x="44.185938" y="150.258017" style="stroke: #000000; stroke-width: 0.6"/>
      </g>
     </g>
    </g>
    <g id="ytick_13">
     <g id="line2d_27">
      <g>
       <use xlink:href="#mff60d56074" x="44.185938" y="130.412666" style="stroke: #000000; stroke-width: 0.6"/>
      </g>
     </g>
    </g>
    <g id="ytick_14">
     <g id="line2d_28">
      <g>
       <use xlink:href="#mff60d56074" x="44.185938" y="114.197833" style="stroke: #000000; stroke-width: 0.6"/>
      </g>
     </g>
    </g>
    <g id="ytick_15">
     <g id="line2d_29">
      <g>
       <use xlink:href="#mff60d56074" x="44.185938" y="100.488387" style="stroke: #000000; stroke-width: 0.6"/>
      </g>
     </g>
    </g>
    <g id="ytick_16">
     <g id="line2d_30">
      <g>
       <use xlink:href="#mff60d56074" x="44.185938" y="88.612725" style="stroke: #000000; stroke-width: 0.6"/>
      </g>
     </g>
    </g>
    <g id="ytick_17">
     <g id="line2d_31">
      <g>
       <use xlink:href="#mff60d56074" x="44.185938" y="78.137649" style="stroke: #000000; stroke-width: 0.6"/>
      </g>
     </g>
    </g>
    <g id="text_10">
     <!-- MSE - 对数空间 -->
     <g transform="translate(17.660937 258.233187) rotate(-90) scale(0.13 -0.13)">
      <defs>
       <path id="SimHei-4d" d="M 2925 125 
L 2425 125 
L 2425 3175 
L 2375 3175 
L 1775 125 
L 1375 125 
L 775 3175 
L 725 3175 
L 725 125 
L 225 125 
L 225 4400 
L 1000 4400 
L 1550 1575 
L 1600 1575 
L 2150 4400 
L 2925 4400 
L 2925 125 
z
" transform="scale(0.015625)"/>
       <path id="SimHei-53" d="M 2900 1325 
Q 2900 750 2537 412 
Q 2175 75 1550 75 
Q 925 75 575 425 
Q 225 775 225 1300 
L 225 1475 
L 800 1475 
L 800 1325 
Q 800 950 1025 750 
Q 1250 550 1550 550 
Q 1950 550 2137 762 
Q 2325 975 2325 1275 
Q 2325 1525 2100 1737 
Q 1875 1950 1450 2125 
Q 850 2350 587 2625 
Q 325 2900 325 3275 
Q 325 3800 687 4125 
Q 1050 4450 1550 4450 
Q 2200 4450 2487 4062 
Q 2775 3675 2775 3225 
L 2200 3225 
Q 2225 3500 2050 3725 
Q 1875 3950 1550 3950 
Q 1250 3950 1075 3787 
Q 900 3625 900 3350 
Q 900 3125 1037 2962 
Q 1175 2800 1750 2575 
Q 2300 2350 2600 2037 
Q 2900 1725 2900 1325 
z
" transform="scale(0.015625)"/>
       <path id="SimHei-2d" d="M 2975 2125 
L 125 2125 
L 125 2525 
L 2975 2525 
L 2975 2125 
z
" transform="scale(0.015625)"/>
       <path id="SimHei-5bf9" d="M 525 4250 
Q 900 4225 1400 4225 
L 2825 4225 
Q 2575 2625 2200 1750 
Q 2825 875 3125 400 
Q 2950 275 2725 75 
Q 2200 975 1950 1300 
Q 1650 775 1350 425 
Q 1050 75 600 -350 
Q 425 -125 200 -25 
Q 625 275 975 675 
Q 1325 1075 1650 1700 
Q 1050 2425 550 2900 
Q 700 3025 900 3225 
Q 1625 2425 1875 2150 
Q 2200 3050 2300 3825 
L 1400 3825 
Q 900 3825 525 3800 
L 525 4250 
z
M 2925 3700 
Q 3525 3675 3750 3675 
L 4825 3675 
L 4825 4425 
Q 4825 4750 4775 5125 
L 5350 5125 
Q 5325 4825 5325 4375 
L 5325 3675 
Q 5575 3675 6150 3700 
L 6150 3250 
Q 5575 3275 5325 3275 
L 5325 125 
Q 5350 -350 5012 -475 
Q 4675 -600 4250 -650 
Q 4175 -350 4025 -100 
Q 4575 -100 4712 -37 
Q 4850 25 4825 325 
L 4825 3275 
L 3775 3275 
Q 3550 3275 2925 3225 
L 2925 3700 
z
M 3450 2725 
Q 3875 1975 4175 1325 
Q 3850 1200 3700 1075 
Q 3475 1750 3050 2475 
Q 3225 2550 3450 2725 
z
" transform="scale(0.015625)"/>
       <path id="SimHei-7a7a" d="M 4025 1925 
Q 4700 1925 5225 1975 
L 5225 1450 
Q 4725 1500 4025 1500 
L 3475 1500 
L 3475 0 
L 5000 0 
Q 5725 0 6175 50 
L 6175 -475 
Q 5750 -425 5050 -425 
L 1750 -425 
Q 775 -425 350 -475 
L 350 50 
Q 825 0 1800 0 
L 2925 0 
L 2925 1500 
L 2300 1500 
Q 1625 1500 1125 1450 
L 1125 1975 
Q 1600 1925 2375 1925 
L 4025 1925 
z
M 5250 3250 
L 5250 3925 
L 1150 3925 
L 1150 3175 
L 600 3175 
Q 625 3425 625 3750 
Q 625 4100 600 4375 
L 3100 4375 
Q 2950 4725 2750 5075 
Q 3000 5200 3300 5300 
Q 3500 4850 3650 4525 
Q 3400 4450 3175 4375 
L 5825 4375 
Q 5800 4150 5800 3775 
Q 5800 3425 5825 3250 
L 5250 3250 
z
M 3975 3525 
Q 4275 3400 4762 3175 
Q 5250 2950 5925 2550 
Q 5675 2275 5575 2075 
Q 5100 2375 4650 2625 
Q 4200 2875 3675 3125 
Q 3800 3275 3975 3525 
z
M 2700 3225 
Q 2425 3100 1937 2737 
Q 1450 2375 825 2000 
Q 675 2225 450 2450 
Q 925 2650 1375 2962 
Q 1825 3275 2150 3650 
Q 2400 3425 2700 3225 
z
" transform="scale(0.015625)"/>
       <path id="SimHei-95f4" d="M 4450 3550 
Q 4425 3075 4425 2725 
L 4425 1400 
Q 4425 1075 4450 625 
L 1925 625 
Q 1950 1075 1950 1425 
L 1950 2725 
Q 1950 3075 1925 3550 
L 4450 3550 
z
M 5800 4875 
Q 5775 4400 5775 3925 
L 5775 250 
Q 5800 -325 5462 -450 
Q 5125 -575 4725 -625 
Q 4700 -325 4525 -25 
Q 5000 -50 5137 25 
Q 5275 100 5275 350 
L 5275 4450 
L 3775 4450 
Q 3175 4450 2650 4425 
L 2650 4900 
Q 3175 4875 3775 4875 
L 5800 4875 
z
M 550 -525 
Q 600 -25 600 525 
L 600 3150 
Q 600 3675 550 4025 
L 1125 4025 
Q 1100 3650 1100 3300 
L 1100 500 
Q 1100 0 1125 -525 
L 550 -525 
z
M 3950 1025 
L 3950 1950 
L 2425 1950 
L 2425 1025 
L 3950 1025 
z
M 3950 2350 
L 3950 3150 
L 2425 3150 
L 2425 2350 
L 3950 2350 
z
M 1525 5300 
Q 1750 5000 2225 4350 
Q 1950 4225 1700 4075 
Q 1450 4575 1075 5025 
Q 1350 5225 1525 5300 
z
" transform="scale(0.015625)"/>
      </defs>
      <use xlink:href="#SimHei-4d"/>
      <use xlink:href="#SimHei-53" transform="translate(50 0)"/>
      <use xlink:href="#SimHei-45" transform="translate(100 0)"/>
      <use xlink:href="#SimHei-20" transform="translate(150 0)"/>
      <use xlink:href="#SimHei-2d" transform="translate(200 0)"/>
      <use xlink:href="#SimHei-20" transform="translate(250 0)"/>
      <use xlink:href="#SimHei-5bf9" transform="translate(300 0)"/>
      <use xlink:href="#SimHei-6570" transform="translate(400 0)"/>
      <use xlink:href="#SimHei-7a7a" transform="translate(500 0)"/>
      <use xlink:href="#SimHei-95f4" transform="translate(600 0)"/>
     </g>
    </g>
   </g>
   <g id="line2d_32">
    <path d="M 67.498233 55.749664 
L 72.207788 198.749978 
L 76.917343 306.470543 
L 81.626897 354.534676 
L 86.336452 366.768842 
L 91.046007 369.214229 
L 95.755561 369.695737 
L 100.465116 369.798782 
L 105.174671 369.82429 
L 109.884225 369.831774 
L 114.59378 369.834302 
L 119.303335 369.835231 
L 124.01289 369.835586 
L 128.722444 369.835722 
L 133.431999 369.835773 
L 138.141554 369.835792 
L 142.851108 369.835799 
L 147.560663 369.835801 
L 152.270218 369.835801 
L 156.979772 369.835801 
L 161.689327 369.835801 
L 166.398882 369.835801 
L 171.108436 369.835801 
L 175.817991 369.835801 
L 180.527546 369.835801 
L 185.237101 369.835801 
L 189.946655 369.835801 
L 194.65621 369.835801 
L 199.365765 369.835801 
L 204.075319 369.835801 
L 208.784874 369.835801 
L 213.494429 369.835801 
L 218.203983 369.835801 
L 222.913538 369.835801 
L 227.623093 369.835801 
L 232.332647 369.835801 
L 237.042202 369.835801 
L 241.751757 369.835801 
L 246.461312 369.835801 
L 251.170866 369.835801 
L 255.880421 369.835801 
L 260.589976 369.835801 
L 265.29953 369.835801 
L 270.009085 369.835801 
L 274.71864 369.835801 
L 279.428194 369.835801 
L 284.137749 369.835801 
L 288.847304 369.835801 
L 293.556858 369.835801 
L 298.266413 369.835801 
L 302.975968 369.835801 
L 307.685523 369.835801 
L 312.395077 369.835801 
L 317.104632 369.835801 
L 321.814187 369.835801 
L 326.523741 369.835801 
L 331.233296 369.835801 
L 335.942851 369.835801 
L 340.652405 369.835801 
L 345.36196 369.835801 
L 350.071515 369.835801 
L 354.781069 369.835801 
L 359.490624 369.835801 
L 364.200179 369.835801 
L 368.909734 369.835801 
L 373.619288 369.835801 
L 378.328843 369.835801 
L 383.038398 369.835801 
L 387.747952 369.835801 
L 392.457507 369.835801 
L 397.167062 369.835801 
L 401.876616 369.835801 
L 406.586171 369.835801 
L 411.295726 369.835801 
L 416.005281 369.835801 
L 420.714835 369.835801 
L 425.42439 369.835801 
L 430.133945 369.835801 
L 434.843499 369.835801 
L 439.553054 369.835801 
L 444.262609 369.835801 
L 448.972163 369.835801 
L 453.681718 369.835801 
L 458.391273 369.835801 
L 463.100827 369.835801 
L 467.810382 369.835801 
L 472.519937 369.835801 
L 477.229492 369.835801 
L 481.939046 369.835801 
L 486.648601 369.835801 
L 491.358156 369.835801 
L 496.06771 369.835801 
L 500.777265 369.835801 
L 505.48682 369.835801 
L 510.196374 369.835801 
L 514.905929 369.835801 
L 519.615484 369.835801 
L 524.325038 369.835801 
L 529.034593 369.835801 
L 533.744148 369.835801 
" clip-path="url(#p7331e7ce29)" style="fill: none; stroke: #1f77b4; stroke-opacity: 0.7; stroke-width: 2; stroke-linecap: square"/>
   </g>
   <g id="line2d_33">
    <path d="M 67.498233 55.723282 
L 72.207788 198.647835 
L 76.917343 306.316007 
L 81.626897 354.40316 
L 86.336452 366.649768 
L 91.046007 369.08488 
L 95.755561 369.552505 
L 100.465116 369.645038 
L 105.174671 369.663902 
L 109.884225 369.667532 
L 114.59378 369.667926 
L 119.303335 369.667708 
L 124.01289 369.667457 
L 128.722444 369.667277 
L 133.431999 369.667166 
L 138.141554 369.667101 
L 142.851108 369.667065 
L 147.560663 369.667045 
L 152.270218 369.667035 
L 156.979772 369.667029 
L 161.689327 369.667026 
L 166.398882 369.667024 
L 171.108436 369.667024 
L 175.817991 369.667023 
L 180.527546 369.667023 
L 185.237101 369.667023 
L 189.946655 369.667023 
L 194.65621 369.667023 
L 199.365765 369.667023 
L 204.075319 369.667023 
L 208.784874 369.667023 
L 213.494429 369.667023 
L 218.203983 369.667023 
L 222.913538 369.667023 
L 227.623093 369.667023 
L 232.332647 369.667023 
L 237.042202 369.667023 
L 241.751757 369.667023 
L 246.461312 369.667023 
L 251.170866 369.667023 
L 255.880421 369.667023 
L 260.589976 369.667023 
L 265.29953 369.667023 
L 270.009085 369.667023 
L 274.71864 369.667023 
L 279.428194 369.667023 
L 284.137749 369.667023 
L 288.847304 369.667023 
L 293.556858 369.667023 
L 298.266413 369.667023 
L 302.975968 369.667023 
L 307.685523 369.667023 
L 312.395077 369.667023 
L 317.104632 369.667023 
L 321.814187 369.667023 
L 326.523741 369.667023 
L 331.233296 369.667023 
L 335.942851 369.667023 
L 340.652405 369.667023 
L 345.36196 369.667023 
L 350.071515 369.667023 
L 354.781069 369.667023 
L 359.490624 369.667023 
L 364.200179 369.667023 
L 368.909734 369.667023 
L 373.619288 369.667023 
L 378.328843 369.667023 
L 383.038398 369.667023 
L 387.747952 369.667023 
L 392.457507 369.667023 
L 397.167062 369.667023 
L 401.876616 369.667023 
L 406.586171 369.667023 
L 411.295726 369.667023 
L 416.005281 369.667023 
L 420.714835 369.667023 
L 425.42439 369.667023 
L 430.133945 369.667023 
L 434.843499 369.667023 
L 439.553054 369.667023 
L 444.262609 369.667023 
L 448.972163 369.667023 
L 453.681718 369.667023 
L 458.391273 369.667023 
L 463.100827 369.667023 
L 467.810382 369.667023 
L 472.519937 369.667023 
L 477.229492 369.667023 
L 481.939046 369.667023 
L 486.648601 369.667023 
L 491.358156 369.667023 
L 496.06771 369.667023 
L 500.777265 369.667023 
L 505.48682 369.667023 
L 510.196374 369.667023 
L 514.905929 369.667023 
L 519.615484 369.667023 
L 524.325038 369.667023 
L 529.034593 369.667023 
L 533.744148 369.667023 
" clip-path="url(#p7331e7ce29)" style="fill: none; stroke: #ff7f0e; stroke-opacity: 0.7; stroke-width: 2; stroke-linecap: square"/>
   </g>
   <g id="line2d_34">
    <path d="M 67.498233 55.630574 
L 72.207788 198.375301 
L 76.917343 305.814639 
L 81.626897 353.789044 
L 86.336452 366.027953 
L 91.046007 368.465052 
L 95.755561 368.928522 
L 100.465116 369.015015 
L 105.174671 369.028704 
L 109.884225 369.028657 
L 114.59378 369.026676 
L 119.303335 369.025007 
L 124.01289 369.023902 
L 128.722444 369.023231 
L 133.431999 369.022843 
L 138.141554 369.022624 
L 142.851108 369.022503 
L 147.560663 369.022436 
L 152.270218 369.022401 
L 156.979772 369.022381 
L 161.689327 369.022371 
L 166.398882 369.022366 
L 171.108436 369.022363 
L 175.817991 369.022361 
L 180.527546 369.02236 
L 185.237101 369.02236 
L 189.946655 369.02236 
L 194.65621 369.02236 
L 199.365765 369.022359 
L 204.075319 369.022359 
L 208.784874 369.022359 
L 213.494429 369.022359 
L 218.203983 369.022359 
L 222.913538 369.022359 
L 227.623093 369.022359 
L 232.332647 369.022359 
L 237.042202 369.022359 
L 241.751757 369.022359 
L 246.461312 369.022359 
L 251.170866 369.022359 
L 255.880421 369.022359 
L 260.589976 369.022359 
L 265.29953 369.022359 
L 270.009085 369.022359 
L 274.71864 369.022359 
L 279.428194 369.022359 
L 284.137749 369.022359 
L 288.847304 369.022359 
L 293.556858 369.022359 
L 298.266413 369.022359 
L 302.975968 369.022359 
L 307.685523 369.022359 
L 312.395077 369.022359 
L 317.104632 369.022359 
L 321.814187 369.022359 
L 326.523741 369.022359 
L 331.233296 369.022359 
L 335.942851 369.022359 
L 340.652405 369.022359 
L 345.36196 369.022359 
L 350.071515 369.022359 
L 354.781069 369.022359 
L 359.490624 369.022359 
L 364.200179 369.022359 
L 368.909734 369.022359 
L 373.619288 369.022359 
L 378.328843 369.022359 
L 383.038398 369.022359 
L 387.747952 369.022359 
L 392.457507 369.022359 
L 397.167062 369.022359 
L 401.876616 369.022359 
L 406.586171 369.022359 
L 411.295726 369.022359 
L 416.005281 369.022359 
L 420.714835 369.022359 
L 425.42439 369.022359 
L 430.133945 369.022359 
L 434.843499 369.022359 
L 439.553054 369.022359 
L 444.262609 369.022359 
L 448.972163 369.022359 
L 453.681718 369.022359 
L 458.391273 369.022359 
L 463.100827 369.022359 
L 467.810382 369.022359 
L 472.519937 369.022359 
L 477.229492 369.022359 
L 481.939046 369.022359 
L 486.648601 369.022359 
L 491.358156 369.022359 
L 496.06771 369.022359 
L 500.777265 369.022359 
L 505.48682 369.022359 
L 510.196374 369.022359 
L 514.905929 369.022359 
L 519.615484 369.022359 
L 524.325038 369.022359 
L 529.034593 369.022359 
L 533.744148 369.022359 
" clip-path="url(#p7331e7ce29)" style="fill: none; stroke: #2ca02c; stroke-opacity: 0.7; stroke-width: 2; stroke-linecap: square"/>
   </g>
   <g id="line2d_35">
    <path d="M 67.498233 55.698665 
L 72.207788 198.55522 
L 76.917343 306.153129 
L 81.626897 354.208514 
L 86.336452 366.441661 
L 91.046007 368.863851 
L 95.755561 369.32081 
L 100.465116 369.40608 
L 105.174671 369.420518 
L 109.884225 369.421618 
L 114.59378 369.420624 
L 119.303335 369.419665 
L 124.01289 369.419025 
L 128.722444 369.418644 
L 133.431999 369.418429 
L 138.141554 369.418312 
L 142.851108 369.418249 
L 147.560663 369.418216 
L 152.270218 369.418198 
L 156.979772 369.41819 
L 161.689327 369.418185 
L 166.398882 369.418183 
L 171.108436 369.418181 
L 175.817991 369.418181 
L 180.527546 369.41818 
L 185.237101 369.41818 
L 189.946655 369.41818 
L 194.65621 369.41818 
L 199.365765 369.41818 
L 204.075319 369.41818 
L 208.784874 369.41818 
L 213.494429 369.41818 
L 218.203983 369.41818 
L 222.913538 369.41818 
L 227.623093 369.41818 
L 232.332647 369.41818 
L 237.042202 369.41818 
L 241.751757 369.41818 
L 246.461312 369.41818 
L 251.170866 369.41818 
L 255.880421 369.41818 
L 260.589976 369.41818 
L 265.29953 369.41818 
L 270.009085 369.41818 
L 274.71864 369.41818 
L 279.428194 369.41818 
L 284.137749 369.41818 
L 288.847304 369.41818 
L 293.556858 369.41818 
L 298.266413 369.41818 
L 302.975968 369.41818 
L 307.685523 369.41818 
L 312.395077 369.41818 
L 317.104632 369.41818 
L 321.814187 369.41818 
L 326.523741 369.41818 
L 331.233296 369.41818 
L 335.942851 369.41818 
L 340.652405 369.41818 
L 345.36196 369.41818 
L 350.071515 369.41818 
L 354.781069 369.41818 
L 359.490624 369.41818 
L 364.200179 369.41818 
L 368.909734 369.41818 
L 373.619288 369.41818 
L 378.328843 369.41818 
L 383.038398 369.41818 
L 387.747952 369.41818 
L 392.457507 369.41818 
L 397.167062 369.41818 
L 401.876616 369.41818 
L 406.586171 369.41818 
L 411.295726 369.41818 
L 416.005281 369.41818 
L 420.714835 369.41818 
L 425.42439 369.41818 
L 430.133945 369.41818 
L 434.843499 369.41818 
L 439.553054 369.41818 
L 444.262609 369.41818 
L 448.972163 369.41818 
L 453.681718 369.41818 
L 458.391273 369.41818 
L 463.100827 369.41818 
L 467.810382 369.41818 
L 472.519937 369.41818 
L 477.229492 369.41818 
L 481.939046 369.41818 
L 486.648601 369.41818 
L 491.358156 369.41818 
L 496.06771 369.41818 
L 500.777265 369.41818 
L 505.48682 369.41818 
L 510.196374 369.41818 
L 514.905929 369.41818 
L 519.615484 369.41818 
L 524.325038 369.41818 
L 529.034593 369.41818 
L 533.744148 369.41818 
" clip-path="url(#p7331e7ce29)" style="fill: none; stroke: #d62728; stroke-opacity: 0.7; stroke-width: 2; stroke-linecap: square"/>
   </g>
   <g id="patch_3">
    <path d="M 44.185938 385.546062 
L 44.185938 39.920312 
" style="fill: none; stroke: #000000; stroke-width: 0.8; stroke-linejoin: miter; stroke-linecap: square"/>
   </g>
   <g id="patch_4">
    <path d="M 557.056444 385.546062 
L 557.056444 39.920312 
" style="fill: none; stroke: #000000; stroke-width: 0.8; stroke-linejoin: miter; stroke-linecap: square"/>
   </g>
   <g id="patch_5">
    <path d="M 44.185938 385.546062 
L 557.056444 385.546062 
" style="fill: none; stroke: #000000; stroke-width: 0.8; stroke-linejoin: miter; stroke-linecap: square"/>
   </g>
   <g id="patch_6">
    <path d="M 44.185938 39.920312 
L 557.056444 39.920312 
" style="fill: none; stroke: #000000; stroke-width: 0.8; stroke-linejoin: miter; stroke-linecap: square"/>
   </g>
   <g id="text_11">
    <!-- 梯度下降收敛过程 -->
    <g transform="translate(244.621191 18.651562) scale(0.14 -0.14)">
     <defs>
      <path id="SimHei-68af" d="M 4225 4225 
Q 4500 4800 4600 5225 
Q 4900 5100 5175 5025 
Q 5025 4900 4887 4687 
Q 4750 4475 4625 4225 
L 5675 4225 
Q 5650 3850 5650 3475 
Q 5650 3100 5675 2750 
L 4300 2750 
L 4300 2025 
L 5850 2025 
Q 5825 1725 5825 1350 
L 5825 675 
Q 5825 350 5625 225 
Q 5425 100 4950 25 
Q 4925 275 4700 525 
Q 5125 525 5262 575 
Q 5400 625 5400 875 
L 5400 1650 
L 4300 1650 
L 4300 450 
Q 4300 -50 4325 -525 
L 3850 -525 
Q 3875 -100 3875 425 
L 3875 1600 
Q 3575 950 3187 537 
Q 2800 125 2150 -325 
Q 2050 -75 1775 100 
Q 2375 375 2787 787 
Q 3200 1200 3450 1650 
L 2575 1650 
Q 2650 2375 2700 3125 
L 3875 3125 
L 3875 3850 
L 3325 3850 
Q 2975 3850 2575 3825 
L 2575 4250 
Q 3000 4225 3325 4225 
L 4225 4225 
z
M 1125 3725 
Q 1125 4700 1100 5075 
L 1625 5075 
Q 1550 4725 1550 3725 
Q 1975 3725 2250 3750 
L 2250 3325 
Q 1925 3350 1550 3350 
L 1550 2375 
Q 1750 2450 1950 2600 
Q 2225 2100 2425 1725 
Q 2200 1600 2000 1450 
Q 1875 1800 1550 2275 
L 1550 325 
Q 1550 -75 1575 -525 
L 1100 -525 
Q 1125 -100 1125 325 
L 1125 2275 
Q 925 1675 525 975 
Q 400 1225 200 1400 
Q 425 1675 700 2275 
Q 975 2875 1050 3350 
Q 675 3350 350 3325 
L 350 3750 
Q 725 3725 1125 3725 
z
M 5200 3125 
L 5200 3850 
L 4300 3850 
L 4300 3125 
L 5200 3125 
z
M 3875 2025 
L 3875 2750 
L 3100 2750 
L 3050 2025 
L 3875 2025 
z
M 3375 5225 
Q 3575 4900 3750 4550 
Q 3550 4475 3350 4325 
Q 3200 4700 2975 5025 
Q 3175 5100 3375 5225 
z
" transform="scale(0.015625)"/>
      <path id="SimHei-5ea6" d="M 1750 1675 
Q 2450 1650 2875 1650 
L 5200 1650 
Q 4975 1250 4650 850 
Q 4325 450 4025 200 
Q 4350 50 4950 -50 
Q 5550 -150 6100 -150 
Q 5950 -300 5825 -650 
Q 5100 -550 4550 -412 
Q 4000 -275 3625 -100 
Q 3100 -325 2587 -462 
Q 2075 -600 1525 -675 
Q 1450 -475 1225 -250 
Q 1675 -250 2250 -125 
Q 2825 0 3250 200 
Q 2825 550 2400 1275 
L 1750 1250 
L 1750 1675 
z
M 2975 5075 
Q 3250 5150 3475 5250 
Q 3625 4975 3775 4525 
L 4700 4525 
Q 4975 4525 5700 4550 
L 5700 4100 
Q 5000 4125 4650 4125 
L 1375 4125 
Q 1375 3000 1350 2312 
Q 1325 1625 1212 950 
Q 1100 275 725 -525 
Q 500 -375 250 -300 
Q 650 400 762 1075 
Q 875 1750 887 2800 
Q 900 3850 875 4525 
L 3200 4525 
Q 3100 4850 2975 5075 
z
M 2475 3300 
Q 2475 3700 2450 3925 
L 2975 3925 
Q 2950 3725 2950 3300 
L 4300 3300 
Q 4300 3700 4275 3950 
L 4800 3950 
Q 4775 3650 4775 3300 
Q 5325 3300 5725 3325 
L 5725 2900 
Q 5350 2925 4775 2925 
Q 4775 2250 4800 1950 
L 2450 1950 
Q 2475 2350 2475 2925 
Q 2175 2925 1600 2900 
L 1600 3325 
Q 2175 3300 2475 3300 
z
M 4300 2350 
L 4300 2925 
L 2950 2925 
L 2950 2350 
L 4300 2350 
z
M 2875 1275 
Q 3200 775 3650 425 
Q 4025 700 4425 1275 
L 2900 1275 
L 2875 1275 
z
" transform="scale(0.015625)"/>
      <path id="SimHei-4e0b" d="M 5000 4700 
Q 5475 4700 5975 4725 
L 5975 4200 
Q 5425 4225 5000 4225 
L 3275 4225 
L 3275 375 
Q 3275 50 3300 -450 
L 2725 -450 
Q 2750 0 2750 375 
L 2750 4225 
L 1375 4225 
Q 875 4225 400 4200 
L 400 4725 
Q 875 4700 1375 4700 
L 5000 4700 
z
M 5650 1400 
Q 5400 1225 5200 1000 
Q 4800 1525 3650 2575 
L 4025 2950 
Q 4700 2400 5650 1400 
z
" transform="scale(0.015625)"/>
      <path id="SimHei-964d" d="M 4075 5050 
Q 3850 4800 3775 4625 
L 5650 4625 
Q 5425 4175 5187 3837 
Q 4950 3500 4650 3200 
Q 4900 3025 5275 2925 
Q 5650 2825 6200 2800 
Q 6025 2525 5975 2300 
Q 5375 2400 4950 2562 
Q 4525 2725 4275 2900 
Q 3950 2700 3550 2500 
Q 3150 2300 2525 2125 
Q 2450 2350 2250 2550 
Q 2775 2650 3212 2825 
Q 3650 3000 3875 3200 
Q 3550 3525 3325 3875 
Q 3000 3450 2825 3275 
Q 2650 3450 2450 3550 
Q 2775 3850 3075 4325 
Q 3375 4800 3575 5300 
Q 3950 5100 4075 5050 
z
M 2350 4975 
Q 2225 4650 2025 4062 
Q 1825 3475 1675 2975 
Q 2075 2450 2200 2175 
Q 2325 1900 2287 1550 
Q 2250 1200 2012 1012 
Q 1775 825 1350 775 
Q 1300 1025 1150 1325 
Q 1650 1300 1737 1512 
Q 1825 1725 1787 1962 
Q 1750 2200 1200 2925 
L 1450 3600 
Q 1600 4025 1725 4550 
L 975 4550 
L 975 -600 
L 500 -600 
Q 525 325 525 875 
L 525 3750 
Q 525 4325 500 4975 
L 2350 4975 
z
M 5100 2075 
Q 5275 2075 5725 2100 
L 5725 1650 
Q 5450 1675 5150 1675 
L 4575 1675 
L 4575 900 
L 5200 900 
Q 5675 900 6050 925 
L 6050 475 
Q 5700 500 5225 500 
L 4575 500 
L 4575 125 
Q 4575 -250 4600 -600 
L 4100 -600 
Q 4125 -225 4125 100 
L 4125 500 
L 2375 500 
Q 2500 1100 2500 1400 
L 3025 1325 
Q 2925 1025 2925 900 
L 4125 900 
L 4125 1675 
L 3475 1675 
Q 3100 1675 2775 1650 
L 2775 2100 
Q 3225 2075 3475 2075 
L 4125 2075 
Q 4125 2375 4100 2625 
L 4575 2625 
Q 4550 2225 4550 2075 
L 5100 2075 
z
M 4275 3475 
Q 4600 3725 4925 4250 
L 3550 4250 
Q 4025 3650 4275 3475 
z
" transform="scale(0.015625)"/>
      <path id="SimHei-6536" d="M 4250 5050 
Q 4125 4850 3750 4050 
L 5150 4050 
Q 5675 4050 6125 4075 
L 6125 3600 
Q 5675 3625 5300 3625 
Q 5225 2625 5025 1975 
Q 4825 1325 4575 900 
Q 4900 500 5287 275 
Q 5675 50 6200 -75 
Q 5900 -275 5800 -550 
Q 5300 -350 4950 -100 
Q 4600 150 4275 525 
Q 3800 0 2775 -625 
Q 2650 -425 2300 -225 
Q 3275 150 3950 925 
Q 3775 1325 3612 1787 
Q 3450 2250 3250 3000 
Q 2975 2450 2825 2275 
Q 2650 2400 2425 2525 
Q 2775 3025 3137 3837 
Q 3500 4650 3625 5250 
Q 3925 5125 4250 5050 
z
M 975 4275 
Q 925 3950 925 3450 
L 925 1575 
L 1775 1725 
L 1775 4425 
Q 1775 4775 1750 5150 
L 2250 5150 
Q 2225 4850 2225 4450 
L 2225 300 
Q 2225 -50 2250 -550 
L 1750 -550 
Q 1775 -25 1775 350 
L 1775 1350 
Q 625 1050 500 925 
Q 375 1125 225 1350 
Q 450 1475 450 1800 
L 450 3575 
Q 450 3925 425 4275 
L 975 4275 
z
M 3725 3150 
Q 3800 2700 3962 2212 
Q 4125 1725 4300 1375 
Q 4725 2150 4825 3625 
L 3575 3625 
Q 3400 3275 3300 3100 
L 3725 3150 
z
" transform="scale(0.015625)"/>
      <path id="SimHei-655b" d="M 3525 2325 
Q 3375 2500 3125 2675 
Q 3525 3150 3775 3837 
Q 4025 4525 4125 5175 
Q 4350 5100 4700 5000 
Q 4625 4975 4537 4712 
Q 4450 4450 4300 4025 
L 5600 4025 
Q 5825 4025 6100 4050 
L 6100 3575 
Q 5725 3600 5525 3600 
Q 5450 2850 5325 2162 
Q 5200 1475 4900 800 
Q 5350 250 6200 -50 
Q 5975 -275 5850 -575 
Q 5050 -75 4625 425 
Q 4100 -200 3250 -675 
Q 3100 -350 2925 -175 
Q 3750 75 4325 775 
Q 4075 1225 3900 1687 
Q 3725 2150 3650 2550 
L 3525 2325 
z
M 2975 2925 
Q 2650 2950 2075 2950 
Q 1450 2950 1175 2925 
L 1175 3325 
Q 900 3000 575 2750 
Q 425 2975 175 3125 
Q 750 3525 1237 4187 
Q 1725 4850 1875 5275 
Q 2175 5100 2400 5000 
Q 2325 4900 2200 4700 
Q 2875 4300 3525 3850 
Q 3325 3575 3175 3375 
Q 2950 3625 2612 3900 
Q 2275 4175 1975 4375 
Q 1650 3925 1225 3375 
Q 1500 3350 2075 3350 
Q 2650 3350 2975 3375 
L 2975 2925 
z
M 3325 2450 
Q 3175 2250 3050 1725 
Q 2925 1200 2775 625 
Q 3075 675 3475 775 
Q 3400 575 3450 325 
Q 2300 150 1600 0 
Q 900 -150 725 -250 
Q 650 75 550 325 
Q 1125 350 2325 550 
Q 2475 1125 2600 1725 
Q 2725 2325 2750 2600 
Q 3000 2525 3325 2450 
z
M 3925 3000 
Q 4050 2500 4262 1925 
Q 4475 1350 4600 1175 
Q 4825 1725 4925 2287 
Q 5025 2850 5075 3600 
L 4175 3600 
Q 4100 3375 3925 3000 
z
M 1025 2350 
Q 1275 1625 1450 925 
Q 1200 850 1000 775 
Q 725 1875 575 2175 
Q 825 2250 1025 2350 
z
M 2000 2525 
Q 2150 1975 2275 1250 
Q 2050 1225 1825 1150 
Q 1775 1525 1575 2425 
Q 1775 2475 2000 2525 
z
" transform="scale(0.015625)"/>
      <path id="SimHei-8fc7" d="M 250 -200 
Q 1025 475 1275 650 
L 1275 2475 
Q 675 2475 400 2450 
L 400 2950 
Q 625 2900 1325 2900 
L 1800 2900 
Q 1775 2525 1775 2150 
L 1775 600 
Q 2500 -25 3912 -37 
Q 5325 -50 6150 75 
Q 6000 -175 5925 -550 
L 4425 -550 
Q 3800 -550 3275 -512 
Q 2750 -475 2387 -300 
Q 2025 -125 1750 75 
Q 1475 275 1237 37 
Q 1000 -200 700 -625 
Q 550 -375 250 -200 
z
M 3625 850 
Q 4200 825 4350 875 
Q 4500 925 4500 1300 
L 4500 3575 
L 2875 3575 
Q 2600 3575 2275 3550 
L 2275 4025 
Q 2600 4000 3075 4000 
L 4500 4000 
Q 4500 4650 4450 5125 
L 5025 5125 
Q 5000 4800 5000 4000 
Q 5525 4000 5950 4025 
L 5950 3550 
Q 5550 3575 5000 3575 
L 5000 1100 
Q 5000 525 4662 412 
Q 4325 300 3825 275 
Q 3775 550 3625 850 
z
M 3125 1600 
Q 2900 2275 2575 2850 
Q 2800 2950 3050 3125 
Q 3500 2225 3625 1875 
Q 3450 1775 3125 1600 
z
M 1150 4975 
Q 1400 4675 1925 3875 
Q 1675 3725 1450 3550 
Q 950 4400 700 4625 
Q 925 4750 1150 4975 
z
" transform="scale(0.015625)"/>
      <path id="SimHei-7a0b" d="M 5825 4975 
Q 5800 4425 5800 3975 
Q 5800 3550 5825 3125 
L 3025 3125 
Q 3050 3600 3050 4025 
Q 3050 4450 3025 4975 
L 5825 4975 
z
M 400 4825 
Q 825 4875 1362 4987 
Q 1900 5100 2275 5275 
Q 2450 4950 2625 4725 
Q 2450 4750 2262 4712 
Q 2075 4675 1850 4650 
L 1850 3425 
Q 2200 3425 2600 3450 
L 2600 2975 
Q 2200 3000 1850 3000 
L 1850 800 
Q 1850 250 1875 -675 
L 1375 -675 
Q 1400 250 1400 775 
L 1400 1925 
Q 1050 1225 625 600 
Q 450 850 225 1050 
Q 575 1400 850 1850 
Q 1125 2300 1350 3000 
Q 725 3000 425 2975 
L 425 3450 
Q 850 3425 1050 3425 
L 1400 3425 
L 1400 4550 
Q 1075 4475 575 4400 
Q 500 4625 400 4825 
z
M 5100 2500 
Q 5500 2500 5950 2525 
L 5950 2075 
Q 5500 2100 5100 2100 
L 4625 2100 
L 4625 1300 
L 4900 1300 
Q 5275 1300 5775 1325 
L 5775 850 
Q 5275 875 4975 875 
L 4625 875 
L 4625 0 
L 5225 0 
Q 5675 0 6175 25 
L 6175 -450 
Q 5775 -425 5225 -425 
L 3550 -425 
Q 3000 -425 2600 -475 
L 2600 25 
Q 3000 0 3550 0 
L 4150 0 
L 4150 875 
L 3800 875 
Q 3400 875 3050 825 
L 3050 1325 
Q 3400 1300 3800 1300 
L 4150 1300 
L 4150 2100 
L 3750 2100 
Q 3300 2100 2900 2075 
L 2900 2525 
Q 3300 2500 3750 2500 
L 5100 2500 
z
M 5275 3575 
L 5275 4550 
L 3500 4550 
L 3500 3575 
L 5275 3575 
z
M 2300 2400 
Q 2550 2025 2825 1525 
Q 2675 1425 2425 1225 
Q 2175 1775 1925 2125 
Q 2075 2250 2300 2400 
z
" transform="scale(0.015625)"/>
     </defs>
     <use xlink:href="#SimHei-68af"/>
     <use xlink:href="#SimHei-5ea6" transform="translate(100 0)"/>
     <use xlink:href="#SimHei-4e0b" transform="translate(200 0)"/>
     <use xlink:href="#SimHei-964d" transform="translate(300 0)"/>
     <use xlink:href="#SimHei-6536" transform="translate(400 0)"/>
     <use xlink:href="#SimHei-655b" transform="translate(500 0)"/>
     <use xlink:href="#SimHei-8fc7" transform="translate(600 0)"/>
     <use xlink:href="#SimHei-7a0b" transform="translate(700 0)"/>
    </g>
    <!-- (对数空间) -->
    <g transform="translate(265.621191 33.920312) scale(0.14 -0.14)">
     <use xlink:href="#SimHei-28"/>
     <use xlink:href="#SimHei-5bf9" transform="translate(50 0)"/>
     <use xlink:href="#SimHei-6570" transform="translate(150 0)"/>
     <use xlink:href="#SimHei-7a7a" transform="translate(250 0)"/>
     <use xlink:href="#SimHei-95f4" transform="translate(350 0)"/>
     <use xlink:href="#SimHei-29" transform="translate(450 0)"/>
    </g>
   </g>
   <g id="legend_1">
    <g id="patch_7">
     <path d="M 437.156444 110.045312 
L 549.356444 110.045312 
Q 551.556444 110.045312 551.556444 107.845312 
L 551.556444 47.620312 
Q 551.556444 45.420312 549.356444 45.420312 
L 437.156444 45.420312 
Q 434.956444 45.420312 434.956444 47.620312 
L 434.956444 107.845312 
Q 434.956444 110.045312 437.156444 110.045312 
z
" style="fill: #ffffff; opacity: 0.8; stroke: #cccccc; stroke-linejoin: miter"/>
    </g>
    <g id="line2d_36">
     <path d="M 439.356444 54.564062 
L 450.356444 54.564062 
L 461.356444 54.564062 
" style="fill: none; stroke: #1f77b4; stroke-opacity: 0.7; stroke-width: 2; stroke-linecap: square"/>
    </g>
    <g id="text_12">
     <!-- SGD_OLS (None) -->
     <g transform="translate(470.156444 58.414062) scale(0.11 -0.11)">
      <defs>
       <path id="SimHei-47" d="M 2850 75 
L 2425 75 
L 2350 425 
Q 2250 275 2037 175 
Q 1825 75 1575 75 
Q 1050 75 637 562 
Q 225 1050 225 2125 
Q 225 3300 600 3875 
Q 975 4450 1625 4450 
Q 2200 4450 2525 4025 
Q 2850 3600 2850 2925 
L 2300 2925 
Q 2300 3450 2125 3712 
Q 1950 3975 1625 3975 
Q 1225 3975 1025 3562 
Q 825 3150 825 2175 
Q 825 1250 1075 900 
Q 1325 550 1650 550 
Q 1975 550 2162 787 
Q 2350 1025 2350 1525 
L 2350 1800 
L 1575 1800 
L 1575 2275 
L 2850 2275 
L 2850 75 
z
" transform="scale(0.015625)"/>
       <path id="SimHei-44" d="M 2925 2250 
Q 2925 1100 2437 612 
Q 1950 125 1125 125 
L 275 125 
L 275 4400 
L 1125 4400 
Q 2050 4400 2487 3900 
Q 2925 3400 2925 2250 
z
M 2325 2250 
Q 2325 3175 2025 3550 
Q 1725 3925 1125 3925 
L 850 3925 
L 850 600 
L 1125 600 
Q 1725 600 2025 962 
Q 2325 1325 2325 2250 
z
" transform="scale(0.015625)"/>
       <path id="SimHei-5f" d="M 3150 -850 
L 0 -850 
L 0 -550 
L 3150 -550 
L 3150 -850 
z
" transform="scale(0.015625)"/>
       <path id="SimHei-4f" d="M 2950 2275 
Q 2950 1100 2587 587 
Q 2225 75 1575 75 
Q 925 75 550 587 
Q 175 1100 175 2275 
Q 175 3450 550 3950 
Q 925 4450 1575 4450 
Q 2225 4450 2587 3950 
Q 2950 3450 2950 2275 
z
M 2350 2275 
Q 2350 3325 2125 3650 
Q 1900 3975 1575 3975 
Q 1250 3975 1012 3650 
Q 775 3325 775 2275 
Q 775 1225 1012 887 
Q 1250 550 1575 550 
Q 1900 550 2125 887 
Q 2350 1225 2350 2275 
z
" transform="scale(0.015625)"/>
       <path id="SimHei-4c" d="M 2900 125 
L 300 125 
L 300 4400 
L 875 4400 
L 875 600 
L 2900 600 
L 2900 125 
z
" transform="scale(0.015625)"/>
       <path id="SimHei-4e" d="M 2850 125 
L 2225 125 
L 850 3225 
L 825 3225 
L 825 125 
L 250 125 
L 250 4400 
L 875 4400 
L 2250 1300 
L 2275 1300 
L 2275 4400 
L 2850 4400 
L 2850 125 
z
" transform="scale(0.015625)"/>
       <path id="SimHei-6e" d="M 2800 125 
L 2300 125 
L 2300 1925 
Q 2300 2225 2150 2400 
Q 2000 2575 1750 2575 
Q 1425 2575 1137 2237 
Q 850 1900 850 1400 
L 850 125 
L 350 125 
L 350 2925 
L 850 2925 
L 850 2400 
Q 1050 2675 1287 2825 
Q 1525 2975 1900 2975 
Q 2350 2975 2575 2725 
Q 2800 2475 2800 2100 
L 2800 125 
z
" transform="scale(0.015625)"/>
       <path id="SimHei-65" d="M 2850 1075 
Q 2800 625 2450 350 
Q 2100 75 1625 75 
Q 1025 75 637 462 
Q 250 850 250 1525 
Q 250 2200 637 2587 
Q 1025 2975 1625 2975 
Q 2150 2975 2487 2637 
Q 2825 2300 2825 1525 
L 800 1525 
Q 800 975 1037 750 
Q 1275 525 1625 525 
Q 1900 525 2075 662 
Q 2250 800 2300 1075 
L 2850 1075 
z
M 2250 1925 
Q 2200 2275 2025 2412 
Q 1850 2550 1575 2550 
Q 1325 2550 1125 2412 
Q 925 2275 825 1925 
L 2250 1925 
z
" transform="scale(0.015625)"/>
      </defs>
      <use xlink:href="#SimHei-53"/>
      <use xlink:href="#SimHei-47" transform="translate(50 0)"/>
      <use xlink:href="#SimHei-44" transform="translate(100 0)"/>
      <use xlink:href="#SimHei-5f" transform="translate(150 0)"/>
      <use xlink:href="#SimHei-4f" transform="translate(200 0)"/>
      <use xlink:href="#SimHei-4c" transform="translate(250 0)"/>
      <use xlink:href="#SimHei-53" transform="translate(300 0)"/>
      <use xlink:href="#SimHei-20" transform="translate(350 0)"/>
      <use xlink:href="#SimHei-28" transform="translate(400 0)"/>
      <use xlink:href="#SimHei-4e" transform="translate(450 0)"/>
      <use xlink:href="#SimHei-6f" transform="translate(500 0)"/>
      <use xlink:href="#SimHei-6e" transform="translate(550 0)"/>
      <use xlink:href="#SimHei-65" transform="translate(600 0)"/>
      <use xlink:href="#SimHei-29" transform="translate(650 0)"/>
     </g>
    </g>
    <g id="line2d_37">
     <path d="M 439.356444 70.11875 
L 450.356444 70.11875 
L 461.356444 70.11875 
" style="fill: none; stroke: #ff7f0e; stroke-opacity: 0.7; stroke-width: 2; stroke-linecap: square"/>
    </g>
    <g id="text_13">
     <!-- SGD_Ridge (L2) -->
     <g transform="translate(470.156444 73.96875) scale(0.11 -0.11)">
      <defs>
       <path id="SimHei-52" d="M 3000 125 
L 2400 125 
L 1500 1975 
L 850 1975 
L 850 125 
L 275 125 
L 275 4400 
L 1525 4400 
Q 2125 4400 2500 4112 
Q 2875 3825 2875 3175 
Q 2875 2675 2625 2400 
Q 2375 2125 2050 2050 
L 3000 125 
z
M 2300 3175 
Q 2300 3525 2087 3725 
Q 1875 3925 1400 3925 
L 850 3925 
L 850 2450 
L 1550 2450 
Q 1850 2450 2075 2612 
Q 2300 2775 2300 3175 
z
" transform="scale(0.015625)"/>
       <path id="SimHei-69" d="M 1800 3725 
L 1300 3725 
L 1300 4375 
L 1800 4375 
L 1800 3725 
z
M 1800 125 
L 1300 125 
L 1300 2925 
L 1800 2925 
L 1800 125 
z
" transform="scale(0.015625)"/>
       <path id="SimHei-64" d="M 2750 125 
L 2250 125 
L 2250 500 
Q 2100 275 1900 175 
Q 1700 75 1425 75 
Q 925 75 575 437 
Q 225 800 225 1525 
Q 225 2250 575 2625 
Q 925 3000 1425 3000 
Q 1700 3000 1900 2887 
Q 2100 2775 2250 2550 
L 2250 4400 
L 2750 4400 
L 2750 125 
z
M 2250 1525 
Q 2250 2000 2037 2275 
Q 1825 2550 1525 2550 
Q 1150 2550 962 2275 
Q 775 2000 775 1525 
Q 775 1050 962 787 
Q 1150 525 1525 525 
Q 1825 525 2037 787 
Q 2250 1050 2250 1525 
z
" transform="scale(0.015625)"/>
       <path id="SimHei-67" d="M 2975 2500 
Q 2800 2550 2637 2562 
Q 2475 2575 2300 2525 
Q 2375 2450 2425 2337 
Q 2475 2225 2475 2000 
Q 2475 1575 2187 1300 
Q 1900 1025 1475 1025 
Q 1375 1025 1212 1062 
Q 1050 1100 950 1150 
Q 875 1100 850 1050 
Q 825 1000 825 925 
Q 825 800 1000 737 
Q 1175 675 1625 675 
Q 2350 675 2612 475 
Q 2875 275 2875 -25 
Q 2875 -425 2487 -612 
Q 2100 -800 1575 -800 
Q 900 -800 575 -625 
Q 250 -450 250 -150 
Q 250 0 375 150 
Q 500 300 700 400 
Q 550 475 462 587 
Q 375 700 375 875 
Q 375 1025 487 1137 
Q 600 1250 750 1325 
Q 625 1450 550 1625 
Q 475 1800 475 2000 
Q 475 2425 762 2700 
Q 1050 2975 1475 2975 
Q 1700 2975 1862 2912 
Q 2025 2850 2150 2725 
Q 2350 2875 2550 2937 
Q 2750 3000 2975 2975 
L 2975 2500 
z
M 1975 2000 
Q 1975 2250 1850 2400 
Q 1725 2550 1475 2550 
Q 1225 2550 1100 2400 
Q 975 2250 975 2000 
Q 975 1750 1100 1600 
Q 1225 1450 1475 1450 
Q 1725 1450 1850 1600 
Q 1975 1750 1975 2000 
z
M 2400 -75 
Q 2400 25 2287 125 
Q 2175 225 1725 225 
Q 1625 225 1450 237 
Q 1275 250 1050 275 
Q 850 200 775 100 
Q 700 0 700 -100 
Q 700 -250 900 -350 
Q 1100 -450 1600 -450 
Q 2025 -450 2212 -337 
Q 2400 -225 2400 -75 
z
" transform="scale(0.015625)"/>
      </defs>
      <use xlink:href="#SimHei-53"/>
      <use xlink:href="#SimHei-47" transform="translate(50 0)"/>
      <use xlink:href="#SimHei-44" transform="translate(100 0)"/>
      <use xlink:href="#SimHei-5f" transform="translate(150 0)"/>
      <use xlink:href="#SimHei-52" transform="translate(200 0)"/>
      <use xlink:href="#SimHei-69" transform="translate(250 0)"/>
      <use xlink:href="#SimHei-64" transform="translate(300 0)"/>
      <use xlink:href="#SimHei-67" transform="translate(350 0)"/>
      <use xlink:href="#SimHei-65" transform="translate(400 0)"/>
      <use xlink:href="#SimHei-20" transform="translate(450 0)"/>
      <use xlink:href="#SimHei-28" transform="translate(500 0)"/>
      <use xlink:href="#SimHei-4c" transform="translate(550 0)"/>
      <use xlink:href="#SimHei-32" transform="translate(600 0)"/>
      <use xlink:href="#SimHei-29" transform="translate(650 0)"/>
     </g>
    </g>
    <g id="line2d_38">
     <path d="M 439.356444 85.673437 
L 450.356444 85.673437 
L 461.356444 85.673437 
" style="fill: none; stroke: #2ca02c; stroke-opacity: 0.7; stroke-width: 2; stroke-linecap: square"/>
    </g>
    <g id="text_14">
     <!-- SGD_Lasso (L1) -->
     <g transform="translate(470.156444 89.523437) scale(0.11 -0.11)">
      <defs>
       <path id="SimHei-61" d="M 2875 125 
L 2275 125 
Q 2225 175 2200 262 
Q 2175 350 2175 475 
Q 2000 275 1750 175 
Q 1500 75 1225 75 
Q 825 75 550 275 
Q 275 475 275 850 
Q 275 1225 525 1450 
Q 775 1675 1300 1750 
Q 1650 1800 1912 1875 
Q 2175 1950 2175 2075 
Q 2175 2225 2062 2375 
Q 1950 2525 1575 2525 
Q 1275 2525 1137 2412 
Q 1000 2300 950 2100 
L 400 2100 
Q 450 2500 762 2737 
Q 1075 2975 1575 2975 
Q 2125 2975 2400 2725 
Q 2675 2475 2675 2025 
L 2675 650 
Q 2675 500 2725 375 
Q 2775 250 2875 125 
z
M 2175 1050 
L 2175 1550 
Q 2025 1500 1887 1462 
Q 1750 1425 1425 1375 
Q 1050 1325 937 1200 
Q 825 1075 825 900 
Q 825 750 937 637 
Q 1050 525 1275 525 
Q 1500 525 1762 650 
Q 2025 775 2175 1050 
z
" transform="scale(0.015625)"/>
      </defs>
      <use xlink:href="#SimHei-53"/>
      <use xlink:href="#SimHei-47" transform="translate(50 0)"/>
      <use xlink:href="#SimHei-44" transform="translate(100 0)"/>
      <use xlink:href="#SimHei-5f" transform="translate(150 0)"/>
      <use xlink:href="#SimHei-4c" transform="translate(200 0)"/>
      <use xlink:href="#SimHei-61" transform="translate(250 0)"/>
      <use xlink:href="#SimHei-73" transform="translate(300 0)"/>
      <use xlink:href="#SimHei-73" transform="translate(350 0)"/>
      <use xlink:href="#SimHei-6f" transform="translate(400 0)"/>
      <use xlink:href="#SimHei-20" transform="translate(450 0)"/>
      <use xlink:href="#SimHei-28" transform="translate(500 0)"/>
      <use xlink:href="#SimHei-4c" transform="translate(550 0)"/>
      <use xlink:href="#SimHei-31" transform="translate(600 0)"/>
      <use xlink:href="#SimHei-29" transform="translate(650 0)"/>
     </g>
    </g>
    <g id="line2d_39">
     <path d="M 439.356444 100.334375 
L 450.356444 100.334375 
L 461.356444 100.334375 
" style="fill: none; stroke: #d62728; stroke-opacity: 0.7; stroke-width: 2; stroke-linecap: square"/>
    </g>
    <g id="text_15">
     <!-- SGD_ElasticNet -->
     <g transform="translate(470.156444 104.184375) scale(0.11 -0.11)">
      <defs>
       <path id="SimHei-6c" d="M 1825 125 
L 1325 125 
L 1325 4400 
L 1825 4400 
L 1825 125 
z
" transform="scale(0.015625)"/>
       <path id="SimHei-74" d="M 2750 200 
Q 2625 150 2462 112 
Q 2300 75 2025 75 
Q 1575 75 1300 325 
Q 1025 575 1025 1025 
L 1025 2525 
L 175 2525 
L 175 2925 
L 1025 2925 
L 1025 3900 
L 1525 3900 
L 1525 2925 
L 2550 2925 
L 2550 2525 
L 1525 2525 
L 1525 1000 
Q 1525 800 1625 662 
Q 1725 525 2000 525 
Q 2275 525 2450 575 
Q 2625 625 2750 700 
L 2750 200 
z
" transform="scale(0.015625)"/>
      </defs>
      <use xlink:href="#SimHei-53"/>
      <use xlink:href="#SimHei-47" transform="translate(50 0)"/>
      <use xlink:href="#SimHei-44" transform="translate(100 0)"/>
      <use xlink:href="#SimHei-5f" transform="translate(150 0)"/>
      <use xlink:href="#SimHei-45" transform="translate(200 0)"/>
      <use xlink:href="#SimHei-6c" transform="translate(250 0)"/>
      <use xlink:href="#SimHei-61" transform="translate(300 0)"/>
      <use xlink:href="#SimHei-73" transform="translate(350 0)"/>
      <use xlink:href="#SimHei-74" transform="translate(400 0)"/>
      <use xlink:href="#SimHei-69" transform="translate(450 0)"/>
      <use xlink:href="#SimHei-63" transform="translate(500 0)"/>
      <use xlink:href="#SimHei-4e" transform="translate(550 0)"/>
      <use xlink:href="#SimHei-65" transform="translate(600 0)"/>
      <use xlink:href="#SimHei-74" transform="translate(650 0)"/>
     </g>
    </g>
   </g>
  </g>
  <g id="axes_2">
   <g id="patch_8">
    <path d="M 623.469731 385.546062 
L 1136.340238 385.546062 
L 1136.340238 39.920312 
L 623.469731 39.920312 
z
" style="fill: #ffffff"/>
   </g>
   <g id="matplotlib.axis_3">
    <g id="xtick_7">
     <g id="line2d_40">
      <path d="M 642.072472 385.546062 
L 642.072472 39.920312 
" clip-path="url(#p05a096d92e)" style="fill: none; stroke: #b0b0b0; stroke-opacity: 0.3; stroke-width: 0.8; stroke-linecap: square"/>
     </g>
     <g id="line2d_41">
      <g>
       <use xlink:href="#m412b235e9a" x="642.072472" y="385.546062" style="stroke: #000000; stroke-width: 0.8"/>
      </g>
     </g>
     <g id="text_16">
      <!-- 0 -->
      <g transform="translate(639.572472 399.421062) scale(0.1 -0.1)">
       <use xlink:href="#SimHei-30"/>
      </g>
     </g>
    </g>
    <g id="xtick_8">
     <g id="line2d_42">
      <path d="M 736.263566 385.546062 
L 736.263566 39.920312 
" clip-path="url(#p05a096d92e)" style="fill: none; stroke: #b0b0b0; stroke-opacity: 0.3; stroke-width: 0.8; stroke-linecap: square"/>
     </g>
     <g id="line2d_43">
      <g>
       <use xlink:href="#m412b235e9a" x="736.263566" y="385.546062" style="stroke: #000000; stroke-width: 0.8"/>
      </g>
     </g>
     <g id="text_17">
      <!-- 20 -->
      <g transform="translate(731.263566 399.421062) scale(0.1 -0.1)">
       <use xlink:href="#SimHei-32"/>
       <use xlink:href="#SimHei-30" transform="translate(50 0)"/>
      </g>
     </g>
    </g>
    <g id="xtick_9">
     <g id="line2d_44">
      <path d="M 830.45466 385.546062 
L 830.45466 39.920312 
" clip-path="url(#p05a096d92e)" style="fill: none; stroke: #b0b0b0; stroke-opacity: 0.3; stroke-width: 0.8; stroke-linecap: square"/>
     </g>
     <g id="line2d_45">
      <g>
       <use xlink:href="#m412b235e9a" x="830.45466" y="385.546062" style="stroke: #000000; stroke-width: 0.8"/>
      </g>
     </g>
     <g id="text_18">
      <!-- 40 -->
      <g transform="translate(825.45466 399.421062) scale(0.1 -0.1)">
       <use xlink:href="#SimHei-34"/>
       <use xlink:href="#SimHei-30" transform="translate(50 0)"/>
      </g>
     </g>
    </g>
    <g id="xtick_10">
     <g id="line2d_46">
      <path d="M 924.645754 385.546062 
L 924.645754 39.920312 
" clip-path="url(#p05a096d92e)" style="fill: none; stroke: #b0b0b0; stroke-opacity: 0.3; stroke-width: 0.8; stroke-linecap: square"/>
     </g>
     <g id="line2d_47">
      <g>
       <use xlink:href="#m412b235e9a" x="924.645754" y="385.546062" style="stroke: #000000; stroke-width: 0.8"/>
      </g>
     </g>
     <g id="text_19">
      <!-- 60 -->
      <g transform="translate(919.645754 399.421062) scale(0.1 -0.1)">
       <use xlink:href="#SimHei-36"/>
       <use xlink:href="#SimHei-30" transform="translate(50 0)"/>
      </g>
     </g>
    </g>
    <g id="xtick_11">
     <g id="line2d_48">
      <path d="M 1018.836848 385.546062 
L 1018.836848 39.920312 
" clip-path="url(#p05a096d92e)" style="fill: none; stroke: #b0b0b0; stroke-opacity: 0.3; stroke-width: 0.8; stroke-linecap: square"/>
     </g>
     <g id="line2d_49">
      <g>
       <use xlink:href="#m412b235e9a" x="1018.836848" y="385.546062" style="stroke: #000000; stroke-width: 0.8"/>
      </g>
     </g>
     <g id="text_20">
      <!-- 80 -->
      <g transform="translate(1013.836848 399.421062) scale(0.1 -0.1)">
       <use xlink:href="#SimHei-38"/>
       <use xlink:href="#SimHei-30" transform="translate(50 0)"/>
      </g>
     </g>
    </g>
    <g id="xtick_12">
     <g id="line2d_50">
      <path d="M 1113.027942 385.546062 
L 1113.027942 39.920312 
" clip-path="url(#p05a096d92e)" style="fill: none; stroke: #b0b0b0; stroke-opacity: 0.3; stroke-width: 0.8; stroke-linecap: square"/>
     </g>
     <g id="line2d_51">
      <g>
       <use xlink:href="#m412b235e9a" x="1113.027942" y="385.546062" style="stroke: #000000; stroke-width: 0.8"/>
      </g>
     </g>
     <g id="text_21">
      <!-- 100 -->
      <g transform="translate(1105.527942 399.421062) scale(0.1 -0.1)">
       <use xlink:href="#SimHei-31"/>
       <use xlink:href="#SimHei-30" transform="translate(50 0)"/>
       <use xlink:href="#SimHei-30" transform="translate(100 0)"/>
      </g>
     </g>
    </g>
    <g id="text_22">
     <!-- 训练轮数 (Epochs) -->
     <g transform="translate(824.654984 415.385906) scale(0.13 -0.13)">
      <use xlink:href="#SimHei-8bad"/>
      <use xlink:href="#SimHei-7ec3" transform="translate(100 0)"/>
      <use xlink:href="#SimHei-8f6e" transform="translate(200 0)"/>
      <use xlink:href="#SimHei-6570" transform="translate(300 0)"/>
      <use xlink:href="#SimHei-20" transform="translate(400 0)"/>
      <use xlink:href="#SimHei-28" transform="translate(450 0)"/>
      <use xlink:href="#SimHei-45" transform="translate(500 0)"/>
      <use xlink:href="#SimHei-70" transform="translate(550 0)"/>
      <use xlink:href="#SimHei-6f" transform="translate(600 0)"/>
      <use xlink:href="#SimHei-63" transform="translate(650 0)"/>
      <use xlink:href="#SimHei-68" transform="translate(700 0)"/>
      <use xlink:href="#SimHei-73" transform="translate(750 0)"/>
      <use xlink:href="#SimHei-29" transform="translate(800 0)"/>
     </g>
    </g>
   </g>
   <g id="matplotlib.axis_4">
    <g id="ytick_18">
     <g id="line2d_52">
      <path d="M 623.469731 310.636423 
L 1136.340238 310.636423 
" clip-path="url(#p05a096d92e)" style="fill: none; stroke: #b0b0b0; stroke-opacity: 0.3; stroke-width: 0.8; stroke-linecap: square"/>
     </g>
     <g id="line2d_53">
      <g>
       <use xlink:href="#m51a2f188de" x="623.469731" y="310.636423" style="stroke: #000000; stroke-width: 0.8"/>
      </g>
     </g>
     <g id="text_23">
      <!-- $\mathdefault{10^{7}}$ -->
      <g transform="translate(602.569731 314.073923) scale(0.1 -0.1)">
       <defs>
        <path id="SimHei-37" d="M 850 150 
Q 1300 2050 2425 3925 
L 275 3925 
L 275 4375 
L 2950 4375 
L 2950 3950 
Q 1775 2050 1400 150 
L 850 150 
z
" transform="scale(0.015625)"/>
       </defs>
       <use xlink:href="#SimHei-31" transform="translate(0 0.15625)"/>
       <use xlink:href="#SimHei-30" transform="translate(50 0.15625)"/>
       <use xlink:href="#SimHei-37" transform="translate(100.799805 32.148438) scale(0.7)"/>
      </g>
     </g>
    </g>
    <g id="ytick_19">
     <g id="line2d_54">
      <g>
       <use xlink:href="#mff60d56074" x="623.469731" y="378.056185" style="stroke: #000000; stroke-width: 0.6"/>
      </g>
     </g>
    </g>
    <g id="ytick_20">
     <g id="line2d_55">
      <g>
       <use xlink:href="#mff60d56074" x="623.469731" y="352.815683" style="stroke: #000000; stroke-width: 0.6"/>
      </g>
     </g>
    </g>
    <g id="ytick_21">
     <g id="line2d_56">
      <g>
       <use xlink:href="#mff60d56074" x="623.469731" y="330.551982" style="stroke: #000000; stroke-width: 0.6"/>
      </g>
     </g>
    </g>
    <g id="ytick_22">
     <g id="line2d_57">
      <g>
       <use xlink:href="#mff60d56074" x="623.469731" y="179.615674" style="stroke: #000000; stroke-width: 0.6"/>
      </g>
     </g>
     <g id="text_24">
      <!-- $\mathdefault{2\times10^{7}}$ -->
      <g transform="translate(585.269731 183.053174) scale(0.1 -0.1)">
       <defs>
        <path id="SimHei-d7" d="M 1450 4375 
L 3150 2625 
L 4875 4375 
L 5125 4050 
L 3450 2325 
L 5125 600 
L 4875 300 
L 3150 2050 
L 1475 300 
L 1450 300 
L 1200 600 
L 2900 2350 
L 1200 4075 
L 1450 4375 
z
" transform="scale(0.015625)"/>
       </defs>
       <use xlink:href="#SimHei-32" transform="translate(0 0.15625)"/>
       <use xlink:href="#SimHei-d7" transform="translate(69.482422 0.15625)"/>
       <use xlink:href="#SimHei-31" transform="translate(188.964844 0.15625)"/>
       <use xlink:href="#SimHei-30" transform="translate(238.964844 0.15625)"/>
       <use xlink:href="#SimHei-37" transform="translate(289.764648 32.148438) scale(0.7)"/>
      </g>
     </g>
    </g>
    <g id="ytick_23">
     <g id="line2d_58">
      <g>
       <use xlink:href="#mff60d56074" x="623.469731" y="102.973449" style="stroke: #000000; stroke-width: 0.6"/>
      </g>
     </g>
     <g id="text_25">
      <!-- $\mathdefault{3\times10^{7}}$ -->
      <g transform="translate(585.269731 106.410949) scale(0.1 -0.1)">
       <defs>
        <path id="SimHei-33" d="M 250 1225 
L 700 1300 
Q 800 975 1025 762 
Q 1250 550 1587 562 
Q 1925 575 2125 837 
Q 2325 1100 2300 1437 
Q 2275 1775 2037 1962 
Q 1800 2150 1275 2225 
L 1275 2550 
Q 1800 2600 2037 2825 
Q 2275 3050 2250 3412 
Q 2225 3775 1925 3937 
Q 1625 4100 1287 3975 
Q 950 3850 750 3275 
L 300 3350 
Q 450 3800 712 4100 
Q 975 4400 1425 4450 
Q 1875 4500 2212 4337 
Q 2550 4175 2687 3837 
Q 2825 3500 2725 3100 
Q 2625 2700 2150 2400 
Q 2500 2250 2687 1950 
Q 2875 1650 2812 1162 
Q 2750 675 2375 375 
Q 2000 75 1525 87 
Q 1050 100 700 387 
Q 350 675 250 1225 
z
" transform="scale(0.015625)"/>
       </defs>
       <use xlink:href="#SimHei-33" transform="translate(0 0.15625)"/>
       <use xlink:href="#SimHei-d7" transform="translate(69.482422 0.15625)"/>
       <use xlink:href="#SimHei-31" transform="translate(188.964844 0.15625)"/>
       <use xlink:href="#SimHei-30" transform="translate(238.964844 0.15625)"/>
       <use xlink:href="#SimHei-37" transform="translate(289.764648 32.148438) scale(0.7)"/>
      </g>
     </g>
    </g>
    <g id="ytick_24">
     <g id="line2d_59">
      <g>
       <use xlink:href="#mff60d56074" x="623.469731" y="48.594926" style="stroke: #000000; stroke-width: 0.6"/>
      </g>
     </g>
     <g id="text_26">
      <!-- $\mathdefault{4\times10^{7}}$ -->
      <g transform="translate(585.269731 52.032426) scale(0.1 -0.1)">
       <use xlink:href="#SimHei-34" transform="translate(0 0.15625)"/>
       <use xlink:href="#SimHei-d7" transform="translate(69.482422 0.15625)"/>
       <use xlink:href="#SimHei-31" transform="translate(188.964844 0.15625)"/>
       <use xlink:href="#SimHei-30" transform="translate(238.964844 0.15625)"/>
       <use xlink:href="#SimHei-37" transform="translate(289.764648 32.148438) scale(0.7)"/>
      </g>
     </g>
    </g>
    <g id="text_27">
     <!-- MSE - 原始空间 -->
     <g transform="translate(579.644731 258.233187) rotate(-90) scale(0.13 -0.13)">
      <defs>
       <path id="SimHei-539f" d="M 3850 4275 
Q 3675 4025 3600 3700 
L 5450 3700 
Q 5425 3475 5425 3000 
L 5425 2225 
Q 5425 1825 5450 1475 
L 4050 1475 
L 4050 -50 
Q 4050 -400 3825 -487 
Q 3600 -575 3100 -625 
Q 3050 -325 2925 -50 
Q 3400 -75 3475 -37 
Q 3550 0 3550 175 
L 3550 1475 
L 2125 1475 
Q 2150 1775 2150 2200 
L 2150 3025 
Q 2150 3425 2125 3700 
L 3150 3700 
Q 3300 4250 3300 4425 
L 3850 4275 
z
M 275 -325 
Q 725 275 875 1037 
Q 1025 1800 1025 2300 
L 1025 4125 
Q 1025 4650 1000 4900 
L 5025 4900 
Q 5575 4900 5800 4925 
L 5800 4475 
Q 5600 4500 5025 4500 
L 1525 4500 
L 1525 2375 
Q 1500 1650 1412 1112 
Q 1325 575 1137 125 
Q 950 -325 800 -575 
Q 550 -400 275 -325 
z
M 4925 2775 
L 4925 3325 
L 2625 3325 
L 2625 2775 
L 4925 2775 
z
M 4925 1875 
L 4925 2400 
L 2625 2400 
L 2625 1875 
L 4925 1875 
z
M 1475 -50 
Q 1800 150 2087 450 
Q 2375 750 2575 1100 
Q 2800 875 2975 750 
Q 2300 -50 1825 -400 
Q 1675 -225 1475 -50 
z
M 4825 1075 
Q 5700 300 5925 25 
Q 5750 -125 5575 -325 
Q 5250 75 4500 725 
Q 4675 925 4825 1075 
z
" transform="scale(0.015625)"/>
       <path id="SimHei-59cb" d="M 1750 5075 
Q 1650 4900 1587 4587 
Q 1525 4275 1475 3875 
L 2550 3875 
Q 2400 2150 1950 1100 
Q 2275 850 2725 425 
Q 2550 275 2375 50 
Q 2000 500 1750 675 
Q 1525 275 1250 -62 
Q 975 -400 700 -675 
Q 600 -525 250 -350 
Q 575 -125 862 200 
Q 1150 525 1375 975 
Q 800 1400 500 1550 
Q 875 2925 950 3425 
Q 650 3425 325 3400 
L 325 3900 
Q 675 3875 1025 3875 
Q 1175 4825 1175 5225 
Q 1550 5125 1750 5075 
z
M 5725 2050 
Q 5700 1650 5700 650 
Q 5700 -325 5725 -650 
L 5200 -650 
L 5200 -100 
L 3450 -100 
L 3450 -675 
L 2950 -675 
Q 2975 -300 2975 675 
Q 2975 1650 2950 2050 
L 5725 2050 
z
M 4400 4950 
Q 3750 3875 3250 3150 
Q 3875 3150 4250 3175 
Q 4625 3200 5200 3225 
Q 4875 3675 4625 3900 
Q 4825 4000 5025 4225 
Q 5750 3300 6125 2850 
Q 6000 2775 5725 2550 
Q 5575 2775 5450 2875 
Q 4575 2825 3937 2762 
Q 3300 2700 2825 2575 
Q 2775 2800 2600 3100 
Q 2875 3225 3237 3850 
Q 3600 4475 3825 5200 
Q 4025 5050 4400 4950 
z
M 5200 325 
L 5200 1600 
L 3450 1600 
L 3450 325 
L 5200 325 
z
M 1025 1775 
Q 1300 1550 1575 1400 
Q 1725 1725 1875 2337 
Q 2025 2950 2050 3425 
L 1400 3425 
Q 1300 2950 1025 1775 
z
" transform="scale(0.015625)"/>
      </defs>
      <use xlink:href="#SimHei-4d"/>
      <use xlink:href="#SimHei-53" transform="translate(50 0)"/>
      <use xlink:href="#SimHei-45" transform="translate(100 0)"/>
      <use xlink:href="#SimHei-20" transform="translate(150 0)"/>
      <use xlink:href="#SimHei-2d" transform="translate(200 0)"/>
      <use xlink:href="#SimHei-20" transform="translate(250 0)"/>
      <use xlink:href="#SimHei-539f" transform="translate(300 0)"/>
      <use xlink:href="#SimHei-59cb" transform="translate(400 0)"/>
      <use xlink:href="#SimHei-7a7a" transform="translate(500 0)"/>
      <use xlink:href="#SimHei-95f4" transform="translate(600 0)"/>
     </g>
    </g>
   </g>
   <g id="line2d_60">
    <path d="M 646.782027 55.773476 
L 651.491582 109.025371 
L 656.201137 206.861303 
L 660.910691 290.234908 
L 665.620246 335.870008 
L 670.329801 356.046133 
L 675.039355 364.337635 
L 679.74891 367.671555 
L 684.458465 368.997494 
L 689.168019 369.518555 
L 693.877574 369.719871 
L 698.587129 369.795704 
L 703.296683 369.823161 
L 708.006238 369.832461 
L 712.715793 369.835226 
L 717.425348 369.835801 
L 722.134902 369.835741 
L 726.844457 369.83556 
L 731.554012 369.835403 
L 736.263566 369.835296 
L 740.973121 369.835229 
L 745.682676 369.83519 
L 750.39223 369.835168 
L 755.101785 369.835156 
L 759.81134 369.835149 
L 764.520894 369.835145 
L 769.230449 369.835143 
L 773.940004 369.835142 
L 778.649559 369.835142 
L 783.359113 369.835142 
L 788.068668 369.835141 
L 792.778223 369.835141 
L 797.487777 369.835141 
L 802.197332 369.835141 
L 806.906887 369.835141 
L 811.616441 369.835141 
L 816.325996 369.835141 
L 821.035551 369.835141 
L 825.745106 369.835141 
L 830.45466 369.835141 
L 835.164215 369.835141 
L 839.87377 369.835141 
L 844.583324 369.835141 
L 849.292879 369.835141 
L 854.002434 369.835141 
L 858.711988 369.835141 
L 863.421543 369.835141 
L 868.131098 369.835141 
L 872.840652 369.835141 
L 877.550207 369.835141 
L 882.259762 369.835141 
L 886.969317 369.835141 
L 891.678871 369.835141 
L 896.388426 369.835141 
L 901.097981 369.835141 
L 905.807535 369.835141 
L 910.51709 369.835141 
L 915.226645 369.835141 
L 919.936199 369.835141 
L 924.645754 369.835141 
L 929.355309 369.835141 
L 934.064863 369.835141 
L 938.774418 369.835141 
L 943.483973 369.835141 
L 948.193528 369.835141 
L 952.903082 369.835141 
L 957.612637 369.835141 
L 962.322192 369.835141 
L 967.031746 369.835141 
L 971.741301 369.835141 
L 976.450856 369.835141 
L 981.16041 369.835141 
L 985.869965 369.835141 
L 990.57952 369.835141 
L 995.289074 369.835141 
L 999.998629 369.835141 
L 1004.708184 369.835141 
L 1009.417739 369.835141 
L 1014.127293 369.835141 
L 1018.836848 369.835141 
L 1023.546403 369.835141 
L 1028.255957 369.835141 
L 1032.965512 369.835141 
L 1037.675067 369.835141 
L 1042.384621 369.835141 
L 1047.094176 369.835141 
L 1051.803731 369.835141 
L 1056.513285 369.835141 
L 1061.22284 369.835141 
L 1065.932395 369.835141 
L 1070.64195 369.835141 
L 1075.351504 369.835141 
L 1080.061059 369.835141 
L 1084.770614 369.835141 
L 1089.480168 369.835141 
L 1094.189723 369.835141 
L 1098.899278 369.835141 
L 1103.608832 369.835141 
L 1108.318387 369.835141 
L 1113.027942 369.835141 
" clip-path="url(#p05a096d92e)" style="fill: none; stroke: #1f77b4; stroke-opacity: 0.7; stroke-width: 2; stroke-linecap: square"/>
   </g>
   <g id="line2d_61">
    <path d="M 646.782027 55.737134 
L 651.491582 108.066405 
L 656.201137 202.701767 
L 660.910691 282.07586 
L 665.620246 325.115313 
L 670.329801 344.080098 
L 675.039355 351.854877 
L 679.74891 354.969677 
L 684.458465 356.202528 
L 689.168019 356.684297 
L 693.877574 356.869292 
L 698.587129 356.938532 
L 703.296683 356.963447 
L 708.006238 356.971845 
L 712.715793 356.974342 
L 717.425348 356.974875 
L 722.134902 356.97484 
L 726.844457 356.974696 
L 731.554012 356.974569 
L 736.263566 356.974484 
L 740.973121 356.974431 
L 745.682676 356.9744 
L 750.39223 356.974383 
L 755.101785 356.974374 
L 759.81134 356.974369 
L 764.520894 356.974367 
L 769.230449 356.974365 
L 773.940004 356.974364 
L 778.649559 356.974364 
L 783.359113 356.974364 
L 788.068668 356.974364 
L 792.778223 356.974364 
L 797.487777 356.974364 
L 802.197332 356.974364 
L 806.906887 356.974364 
L 811.616441 356.974364 
L 816.325996 356.974364 
L 821.035551 356.974364 
L 825.745106 356.974364 
L 830.45466 356.974364 
L 835.164215 356.974364 
L 839.87377 356.974364 
L 844.583324 356.974364 
L 849.292879 356.974364 
L 854.002434 356.974364 
L 858.711988 356.974364 
L 863.421543 356.974364 
L 868.131098 356.974364 
L 872.840652 356.974364 
L 877.550207 356.974364 
L 882.259762 356.974364 
L 886.969317 356.974364 
L 891.678871 356.974364 
L 896.388426 356.974364 
L 901.097981 356.974364 
L 905.807535 356.974364 
L 910.51709 356.974364 
L 915.226645 356.974364 
L 919.936199 356.974364 
L 924.645754 356.974364 
L 929.355309 356.974364 
L 934.064863 356.974364 
L 938.774418 356.974364 
L 943.483973 356.974364 
L 948.193528 356.974364 
L 952.903082 356.974364 
L 957.612637 356.974364 
L 962.322192 356.974364 
L 967.031746 356.974364 
L 971.741301 356.974364 
L 976.450856 356.974364 
L 981.16041 356.974364 
L 985.869965 356.974364 
L 990.57952 356.974364 
L 995.289074 356.974364 
L 999.998629 356.974364 
L 1004.708184 356.974364 
L 1009.417739 356.974364 
L 1014.127293 356.974364 
L 1018.836848 356.974364 
L 1023.546403 356.974364 
L 1028.255957 356.974364 
L 1032.965512 356.974364 
L 1037.675067 356.974364 
L 1042.384621 356.974364 
L 1047.094176 356.974364 
L 1051.803731 356.974364 
L 1056.513285 356.974364 
L 1061.22284 356.974364 
L 1065.932395 356.974364 
L 1070.64195 356.974364 
L 1075.351504 356.974364 
L 1080.061059 356.974364 
L 1084.770614 356.974364 
L 1089.480168 356.974364 
L 1094.189723 356.974364 
L 1098.899278 356.974364 
L 1103.608832 356.974364 
L 1108.318387 356.974364 
L 1113.027942 356.974364 
" clip-path="url(#p05a096d92e)" style="fill: none; stroke: #ff7f0e; stroke-opacity: 0.7; stroke-width: 2; stroke-linecap: square"/>
   </g>
   <g id="line2d_62">
    <path d="M 646.782027 55.630574 
L 651.491582 107.089449 
L 656.201137 199.805159 
L 660.910691 276.924522 
L 665.620246 318.437918 
L 670.329801 336.63168 
L 675.039355 344.054905 
L 679.74891 347.010961 
L 684.458465 348.169822 
L 689.168019 348.615764 
L 693.877574 348.78274 
L 698.587129 348.842601 
L 703.296683 348.862498 
L 708.006238 348.868154 
L 712.715793 348.869131 
L 717.425348 348.868816 
L 722.134902 348.868305 
L 726.844457 348.867893 
L 731.554012 348.867617 
L 736.263566 348.867447 
L 740.973121 348.867348 
L 745.682676 348.867291 
L 750.39223 348.867259 
L 755.101785 348.867242 
L 759.81134 348.867233 
L 764.520894 348.867228 
L 769.230449 348.867225 
L 773.940004 348.867224 
L 778.649559 348.867223 
L 783.359113 348.867223 
L 788.068668 348.867222 
L 792.778223 348.867222 
L 797.487777 348.867222 
L 802.197332 348.867222 
L 806.906887 348.867222 
L 811.616441 348.867222 
L 816.325996 348.867222 
L 821.035551 348.867222 
L 825.745106 348.867222 
L 830.45466 348.867222 
L 835.164215 348.867222 
L 839.87377 348.867222 
L 844.583324 348.867222 
L 849.292879 348.867222 
L 854.002434 348.867222 
L 858.711988 348.867222 
L 863.421543 348.867222 
L 868.131098 348.867222 
L 872.840652 348.867222 
L 877.550207 348.867222 
L 882.259762 348.867222 
L 886.969317 348.867222 
L 891.678871 348.867222 
L 896.388426 348.867222 
L 901.097981 348.867222 
L 905.807535 348.867222 
L 910.51709 348.867222 
L 915.226645 348.867222 
L 919.936199 348.867222 
L 924.645754 348.867222 
L 929.355309 348.867222 
L 934.064863 348.867222 
L 938.774418 348.867222 
L 943.483973 348.867222 
L 948.193528 348.867222 
L 952.903082 348.867222 
L 957.612637 348.867222 
L 962.322192 348.867222 
L 967.031746 348.867222 
L 971.741301 348.867222 
L 976.450856 348.867222 
L 981.16041 348.867222 
L 985.869965 348.867222 
L 990.57952 348.867222 
L 995.289074 348.867222 
L 999.998629 348.867222 
L 1004.708184 348.867222 
L 1009.417739 348.867222 
L 1014.127293 348.867222 
L 1018.836848 348.867222 
L 1023.546403 348.867222 
L 1028.255957 348.867222 
L 1032.965512 348.867222 
L 1037.675067 348.867222 
L 1042.384621 348.867222 
L 1047.094176 348.867222 
L 1051.803731 348.867222 
L 1056.513285 348.867222 
L 1061.22284 348.867222 
L 1065.932395 348.867222 
L 1070.64195 348.867222 
L 1075.351504 348.867222 
L 1080.061059 348.867222 
L 1084.770614 348.867222 
L 1089.480168 348.867222 
L 1094.189723 348.867222 
L 1098.899278 348.867222 
L 1103.608832 348.867222 
L 1108.318387 348.867222 
L 1113.027942 348.867222 
" clip-path="url(#p05a096d92e)" style="fill: none; stroke: #2ca02c; stroke-opacity: 0.7; stroke-width: 2; stroke-linecap: square"/>
   </g>
   <g id="line2d_63">
    <path d="M 646.782027 55.703175 
L 651.491582 107.497773 
L 656.201137 200.45417 
L 660.910691 277.796123 
L 665.620246 319.52574 
L 670.329801 337.875266 
L 675.039355 345.386788 
L 679.74891 348.390468 
L 684.458465 349.576507 
L 689.168019 350.038669 
L 693.877574 350.215547 
L 698.587129 350.281491 
L 703.296683 350.305107 
L 708.006238 350.313017 
L 712.715793 350.315346 
L 717.425348 350.315831 
L 722.134902 350.315789 
L 726.844457 350.315649 
L 731.554012 350.31553 
L 736.263566 350.315449 
L 740.973121 350.3154 
L 745.682676 350.315372 
L 750.39223 350.315356 
L 755.101785 350.315348 
L 759.81134 350.315343 
L 764.520894 350.315341 
L 769.230449 350.31534 
L 773.940004 350.315339 
L 778.649559 350.315339 
L 783.359113 350.315339 
L 788.068668 350.315338 
L 792.778223 350.315338 
L 797.487777 350.315338 
L 802.197332 350.315338 
L 806.906887 350.315338 
L 811.616441 350.315338 
L 816.325996 350.315338 
L 821.035551 350.315338 
L 825.745106 350.315338 
L 830.45466 350.315338 
L 835.164215 350.315338 
L 839.87377 350.315338 
L 844.583324 350.315338 
L 849.292879 350.315338 
L 854.002434 350.315338 
L 858.711988 350.315338 
L 863.421543 350.315338 
L 868.131098 350.315338 
L 872.840652 350.315338 
L 877.550207 350.315338 
L 882.259762 350.315338 
L 886.969317 350.315338 
L 891.678871 350.315338 
L 896.388426 350.315338 
L 901.097981 350.315338 
L 905.807535 350.315338 
L 910.51709 350.315338 
L 915.226645 350.315338 
L 919.936199 350.315338 
L 924.645754 350.315338 
L 929.355309 350.315338 
L 934.064863 350.315338 
L 938.774418 350.315338 
L 943.483973 350.315338 
L 948.193528 350.315338 
L 952.903082 350.315338 
L 957.612637 350.315338 
L 962.322192 350.315338 
L 967.031746 350.315338 
L 971.741301 350.315338 
L 976.450856 350.315338 
L 981.16041 350.315338 
L 985.869965 350.315338 
L 990.57952 350.315338 
L 995.289074 350.315338 
L 999.998629 350.315338 
L 1004.708184 350.315338 
L 1009.417739 350.315338 
L 1014.127293 350.315338 
L 1018.836848 350.315338 
L 1023.546403 350.315338 
L 1028.255957 350.315338 
L 1032.965512 350.315338 
L 1037.675067 350.315338 
L 1042.384621 350.315338 
L 1047.094176 350.315338 
L 1051.803731 350.315338 
L 1056.513285 350.315338 
L 1061.22284 350.315338 
L 1065.932395 350.315338 
L 1070.64195 350.315338 
L 1075.351504 350.315338 
L 1080.061059 350.315338 
L 1084.770614 350.315338 
L 1089.480168 350.315338 
L 1094.189723 350.315338 
L 1098.899278 350.315338 
L 1103.608832 350.315338 
L 1108.318387 350.315338 
L 1113.027942 350.315338 
" clip-path="url(#p05a096d92e)" style="fill: none; stroke: #d62728; stroke-opacity: 0.7; stroke-width: 2; stroke-linecap: square"/>
   </g>
   <g id="patch_9">
    <path d="M 623.469731 385.546063 
L 623.469731 39.920313 
" style="fill: none; stroke: #000000; stroke-width: 0.8; stroke-linejoin: miter; stroke-linecap: square"/>
   </g>
   <g id="patch_10">
    <path d="M 1136.340238 385.546063 
L 1136.340238 39.920313 
" style="fill: none; stroke: #000000; stroke-width: 0.8; stroke-linejoin: miter; stroke-linecap: square"/>
   </g>
   <g id="patch_11">
    <path d="M 623.469731 385.546062 
L 1136.340238 385.546062 
" style="fill: none; stroke: #000000; stroke-width: 0.8; stroke-linejoin: miter; stroke-linecap: square"/>
   </g>
   <g id="patch_12">
    <path d="M 623.469731 39.920312 
L 1136.340238 39.920312 
" style="fill: none; stroke: #000000; stroke-width: 0.8; stroke-linejoin: miter; stroke-linecap: square"/>
   </g>
   <g id="text_28">
    <!-- 梯度下降收敛过程 -->
    <g transform="translate(823.904984 18.520312) scale(0.14 -0.14)">
     <use xlink:href="#SimHei-68af"/>
     <use xlink:href="#SimHei-5ea6" transform="translate(100 0)"/>
     <use xlink:href="#SimHei-4e0b" transform="translate(200 0)"/>
     <use xlink:href="#SimHei-964d" transform="translate(300 0)"/>
     <use xlink:href="#SimHei-6536" transform="translate(400 0)"/>
     <use xlink:href="#SimHei-655b" transform="translate(500 0)"/>
     <use xlink:href="#SimHei-8fc7" transform="translate(600 0)"/>
     <use xlink:href="#SimHei-7a0b" transform="translate(700 0)"/>
    </g>
    <!-- (原始径流量空间) -->
    <g transform="translate(823.904984 33.920312) scale(0.14 -0.14)">
     <defs>
      <path id="SimHei-5f84" d="M 4700 1875 
Q 5325 1875 5675 1900 
L 5675 1425 
Q 5350 1450 4725 1450 
L 4350 1450 
L 4350 100 
L 5375 100 
L 6075 150 
L 6075 -350 
Q 5725 -325 5375 -325 
L 2900 -325 
Q 2450 -325 2075 -350 
L 2075 125 
Q 2450 100 2900 100 
L 3875 100 
L 3875 1450 
L 3550 1450 
Q 3100 1450 2575 1425 
L 2575 1900 
Q 3100 1875 3550 1875 
L 4700 1875 
z
M 5625 4700 
Q 5400 4325 5162 4037 
Q 4925 3750 4625 3425 
Q 5475 2950 6050 2550 
Q 5825 2350 5675 2175 
Q 4825 2850 4300 3150 
Q 3900 2850 3550 2650 
Q 3200 2450 2525 2100 
Q 2450 2275 2175 2525 
Q 2775 2700 3537 3162 
Q 4300 3625 4775 4300 
L 3475 4300 
Q 3025 4300 2625 4275 
L 2625 4725 
Q 3000 4700 3450 4700 
L 5625 4700 
z
M 2550 3600 
Q 2300 3375 1725 2625 
L 1725 575 
Q 1725 50 1750 -600 
L 1250 -600 
Q 1275 50 1275 600 
L 1275 2150 
Q 925 1825 600 1550 
Q 450 1725 275 1900 
Q 850 2275 1337 2837 
Q 1825 3400 2100 3950 
Q 2300 3775 2550 3600 
z
M 2275 4850 
Q 2100 4650 1637 4150 
Q 1175 3650 750 3275 
Q 600 3450 375 3625 
Q 825 3925 1212 4337 
Q 1600 4750 1850 5175 
Q 2050 5000 2275 4850 
z
" transform="scale(0.015625)"/>
      <path id="SimHei-6d41" d="M 3725 5250 
Q 3975 4875 4225 4450 
L 5025 4450 
Q 5425 4450 5925 4475 
L 5925 4025 
Q 5325 4050 5025 4050 
L 3425 4050 
Q 3625 3900 3775 3825 
Q 3650 3725 3450 3475 
Q 3250 3225 2850 2775 
Q 3750 2800 4775 2850 
Q 4525 3150 4275 3375 
Q 4525 3550 4625 3675 
Q 5325 2950 5800 2375 
Q 5575 2200 5400 2050 
Q 5200 2325 5050 2525 
Q 4500 2475 3562 2412 
Q 2625 2350 2300 2250 
Q 2225 2475 2075 2675 
Q 2325 2750 2675 3175 
Q 3025 3600 3250 4050 
L 2975 4050 
Q 2525 4050 2050 4000 
L 2050 4475 
Q 2525 4450 2975 4450 
L 3675 4450 
Q 3475 4800 3325 5000 
Q 3575 5125 3725 5250 
z
M 5025 2025 
Q 5000 1700 5000 1375 
L 5000 150 
Q 5000 -75 5225 -75 
L 5475 -75 
Q 5675 -75 5700 500 
Q 5900 350 6200 275 
Q 6050 -350 5887 -425 
Q 5725 -500 5500 -500 
L 5025 -500 
Q 4550 -500 4550 -25 
L 4550 1425 
Q 4550 1725 4525 2025 
L 5025 2025 
z
M 3125 1975 
Q 3075 1725 3037 1212 
Q 3000 700 2812 225 
Q 2625 -250 1950 -700 
Q 1775 -475 1575 -325 
Q 2075 -100 2312 287 
Q 2550 675 2575 1162 
Q 2600 1650 2575 2025 
Q 2825 1975 3125 1975 
z
M 4000 2025 
Q 3975 1875 3975 1400 
L 3975 300 
Q 3975 -25 4000 -500 
L 3475 -500 
Q 3500 -50 3500 300 
L 3500 1400 
Q 3500 1825 3475 2025 
L 4000 2025 
z
M 1900 1625 
Q 1650 1200 1350 562 
Q 1050 -75 850 -425 
Q 625 -250 325 -125 
Q 575 175 900 750 
Q 1225 1325 1450 1950 
Q 1650 1775 1900 1625 
z
M 625 3450 
Q 1200 3100 1725 2725 
Q 1525 2525 1375 2275 
Q 925 2700 325 3000 
Q 475 3200 625 3450 
z
M 925 4975 
Q 1500 4625 1900 4300 
Q 1725 4075 1550 3875 
Q 1150 4275 625 4575 
Q 800 4800 925 4975 
z
" transform="scale(0.015625)"/>
      <path id="SimHei-91cf" d="M 5250 2500 
Q 5225 2200 5225 1700 
Q 5225 1225 5250 950 
L 3425 950 
L 3425 625 
L 4575 625 
Q 5000 625 5375 650 
L 5375 275 
Q 5025 300 4575 300 
L 3425 300 
L 3425 -75 
L 5125 -75 
Q 5525 -75 5925 -50 
L 5925 -425 
Q 5525 -400 5125 -400 
L 1275 -400 
Q 900 -400 475 -425 
L 475 -50 
Q 925 -50 1275 -75 
L 2975 -75 
L 2975 300 
L 1725 300 
Q 1350 300 975 250 
L 975 650 
Q 1375 625 1725 625 
L 2975 625 
L 2975 950 
L 1150 950 
Q 1175 1375 1175 1775 
Q 1175 2175 1150 2500 
L 5250 2500 
z
M 5200 4950 
Q 5175 4575 5175 4250 
Q 5175 3925 5200 3400 
L 1200 3400 
Q 1225 3925 1225 4250 
Q 1225 4575 1200 4950 
L 5200 4950 
z
M 4900 3100 
Q 5500 3125 6000 3150 
L 6000 2750 
Q 5500 2775 4925 2775 
L 1650 2775 
Q 975 2775 325 2750 
L 325 3150 
Q 975 3125 1650 3100 
L 4900 3100 
z
M 4725 3700 
L 4725 4025 
L 1675 4025 
L 1675 3700 
L 4725 3700 
z
M 4725 4350 
L 4725 4650 
L 1675 4650 
L 1675 4350 
L 4725 4350 
z
M 4750 1875 
L 4750 2175 
L 3425 2175 
L 3425 1875 
L 4750 1875 
z
M 2975 1875 
L 2975 2175 
L 1650 2175 
L 1650 1875 
L 2975 1875 
z
M 2975 1275 
L 2975 1550 
L 1650 1550 
L 1650 1275 
L 2975 1275 
z
M 4750 1275 
L 4750 1550 
L 3425 1550 
L 3425 1275 
L 4750 1275 
z
" transform="scale(0.015625)"/>
     </defs>
     <use xlink:href="#SimHei-28"/>
     <use xlink:href="#SimHei-539f" transform="translate(50 0)"/>
     <use xlink:href="#SimHei-59cb" transform="translate(150 0)"/>
     <use xlink:href="#SimHei-5f84" transform="translate(250 0)"/>
     <use xlink:href="#SimHei-6d41" transform="translate(350 0)"/>
     <use xlink:href="#SimHei-91cf" transform="translate(450 0)"/>
     <use xlink:href="#SimHei-7a7a" transform="translate(550 0)"/>
     <use xlink:href="#SimHei-95f4" transform="translate(650 0)"/>
     <use xlink:href="#SimHei-29" transform="translate(750 0)"/>
    </g>
   </g>
   <g id="legend_2">
    <g id="patch_13">
     <path d="M 1016.440238 110.045312 
L 1128.640238 110.045312 
Q 1130.840238 110.045312 1130.840238 107.845312 
L 1130.840238 47.620312 
Q 1130.840238 45.420312 1128.640238 45.420312 
L 1016.440238 45.420312 
Q 1014.240238 45.420312 1014.240238 47.620312 
L 1014.240238 107.845312 
Q 1014.240238 110.045312 1016.440238 110.045312 
z
" style="fill: #ffffff; opacity: 0.8; stroke: #cccccc; stroke-linejoin: miter"/>
    </g>
    <g id="line2d_64">
     <path d="M 1018.640238 54.564062 
L 1029.640238 54.564062 
L 1040.640238 54.564062 
" style="fill: none; stroke: #1f77b4; stroke-opacity: 0.7; stroke-width: 2; stroke-linecap: square"/>
    </g>
    <g id="text_29">
     <!-- SGD_OLS (None) -->
     <g transform="translate(1049.440237 58.414062) scale(0.11 -0.11)">
      <use xlink:href="#SimHei-53"/>
      <use xlink:href="#SimHei-47" transform="translate(50 0)"/>
      <use xlink:href="#SimHei-44" transform="translate(100 0)"/>
      <use xlink:href="#SimHei-5f" transform="translate(150 0)"/>
      <use xlink:href="#SimHei-4f" transform="translate(200 0)"/>
      <use xlink:href="#SimHei-4c" transform="translate(250 0)"/>
      <use xlink:href="#SimHei-53" transform="translate(300 0)"/>
      <use xlink:href="#SimHei-20" transform="translate(350 0)"/>
      <use xlink:href="#SimHei-28" transform="translate(400 0)"/>
      <use xlink:href="#SimHei-4e" transform="translate(450 0)"/>
      <use xlink:href="#SimHei-6f" transform="translate(500 0)"/>
      <use xlink:href="#SimHei-6e" transform="translate(550 0)"/>
      <use xlink:href="#SimHei-65" transform="translate(600 0)"/>
      <use xlink:href="#SimHei-29" transform="translate(650 0)"/>
     </g>
    </g>
    <g id="line2d_65">
     <path d="M 1018.640238 70.11875 
L 1029.640238 70.11875 
L 1040.640238 70.11875 
" style="fill: none; stroke: #ff7f0e; stroke-opacity: 0.7; stroke-width: 2; stroke-linecap: square"/>
    </g>
    <g id="text_30">
     <!-- SGD_Ridge (L2) -->
     <g transform="translate(1049.440237 73.96875) scale(0.11 -0.11)">
      <use xlink:href="#SimHei-53"/>
      <use xlink:href="#SimHei-47" transform="translate(50 0)"/>
      <use xlink:href="#SimHei-44" transform="translate(100 0)"/>
      <use xlink:href="#SimHei-5f" transform="translate(150 0)"/>
      <use xlink:href="#SimHei-52" transform="translate(200 0)"/>
      <use xlink:href="#SimHei-69" transform="translate(250 0)"/>
      <use xlink:href="#SimHei-64" transform="translate(300 0)"/>
      <use xlink:href="#SimHei-67" transform="translate(350 0)"/>
      <use xlink:href="#SimHei-65" transform="translate(400 0)"/>
      <use xlink:href="#SimHei-20" transform="translate(450 0)"/>
      <use xlink:href="#SimHei-28" transform="translate(500 0)"/>
      <use xlink:href="#SimHei-4c" transform="translate(550 0)"/>
      <use xlink:href="#SimHei-32" transform="translate(600 0)"/>
      <use xlink:href="#SimHei-29" transform="translate(650 0)"/>
     </g>
    </g>
    <g id="line2d_66">
     <path d="M 1018.640238 85.673437 
L 1029.640238 85.673437 
L 1040.640238 85.673437 
" style="fill: none; stroke: #2ca02c; stroke-opacity: 0.7; stroke-width: 2; stroke-linecap: square"/>
    </g>
    <g id="text_31">
     <!-- SGD_Lasso (L1) -->
     <g transform="translate(1049.440237 89.523437) scale(0.11 -0.11)">
      <use xlink:href="#SimHei-53"/>
      <use xlink:href="#SimHei-47" transform="translate(50 0)"/>
      <use xlink:href="#SimHei-44" transform="translate(100 0)"/>
      <use xlink:href="#SimHei-5f" transform="translate(150 0)"/>
      <use xlink:href="#SimHei-4c" transform="translate(200 0)"/>
      <use xlink:href="#SimHei-61" transform="translate(250 0)"/>
      <use xlink:href="#SimHei-73" transform="translate(300 0)"/>
      <use xlink:href="#SimHei-73" transform="translate(350 0)"/>
      <use xlink:href="#SimHei-6f" transform="translate(400 0)"/>
      <use xlink:href="#SimHei-20" transform="translate(450 0)"/>
      <use xlink:href="#SimHei-28" transform="translate(500 0)"/>
      <use xlink:href="#SimHei-4c" transform="translate(550 0)"/>
      <use xlink:href="#SimHei-31" transform="translate(600 0)"/>
      <use xlink:href="#SimHei-29" transform="translate(650 0)"/>
     </g>
    </g>
    <g id="line2d_67">
     <path d="M 1018.640238 100.334375 
L 1029.640238 100.334375 
L 1040.640238 100.334375 
" style="fill: none; stroke: #d62728; stroke-opacity: 0.7; stroke-width: 2; stroke-linecap: square"/>
    </g>
    <g id="text_32">
     <!-- SGD_ElasticNet -->
     <g transform="translate(1049.440237 104.184375) scale(0.11 -0.11)">
      <use xlink:href="#SimHei-53"/>
      <use xlink:href="#SimHei-47" transform="translate(50 0)"/>
      <use xlink:href="#SimHei-44" transform="translate(100 0)"/>
      <use xlink:href="#SimHei-5f" transform="translate(150 0)"/>
      <use xlink:href="#SimHei-45" transform="translate(200 0)"/>
      <use xlink:href="#SimHei-6c" transform="translate(250 0)"/>
      <use xlink:href="#SimHei-61" transform="translate(300 0)"/>
      <use xlink:href="#SimHei-73" transform="translate(350 0)"/>
      <use xlink:href="#SimHei-74" transform="translate(400 0)"/>
      <use xlink:href="#SimHei-69" transform="translate(450 0)"/>
      <use xlink:href="#SimHei-63" transform="translate(500 0)"/>
      <use xlink:href="#SimHei-4e" transform="translate(550 0)"/>
      <use xlink:href="#SimHei-65" transform="translate(600 0)"/>
      <use xlink:href="#SimHei-74" transform="translate(650 0)"/>
     </g>
    </g>
   </g>
  </g>
 </g>
 <defs>
  <clipPath id="p7331e7ce29">
   <rect x="44.185938" y="39.920312" width="512.870506" height="345.62575"/>
  </clipPath>
  <clipPath id="p05a096d92e">
   <rect x="623.469731" y="39.920312" width="512.870506" height="345.62575"/>
  </clipPath>
 </defs>
</svg>
